<?xml version="1.0" encoding="UTF-8"?>
<svg id="Layer_2" data-name="Layer 2" xmlns="http://www.w3.org/2000/svg" viewBox="0 0 122.31 8.59">
  <defs>
    <style>
      .cls-1 {
        fill: #231f20;
      }

      .cls-2 {
        fill: #ef4136;
      }
    </style>
  </defs>
  <g id="Layer_1-2" data-name="Layer 1">
    <g>
      <path class="cls-1" d="M2.78,5.54c-.11,0-.19.02-.24.05-.05.04-.09.1-.13.19l-.54,1.42c-.04.12-.06.21-.06.28,0,.1.03.19.08.26.05.07.12.12.21.16.09.04.19.07.3.1.11.02.23.04.35.05.06,0,.1.02.12.07.02.04.04.09.04.14s-.01.09-.04.14c-.02.04-.06.07-.12.07-.19,0-.41-.02-.66-.05s-.48-.05-.71-.05c-.21,0-.41.02-.6.05-.19.03-.4.05-.62.05-.04,0-.07-.02-.1-.06-.03-.04-.04-.08-.05-.13,0-.05,0-.09.02-.14s.06-.07.11-.08l.18-.02c.12-.02.23-.05.33-.09.1-.04.19-.09.28-.17.08-.08.17-.19.25-.32.08-.13.16-.3.24-.51L4.12.1c.02-.06.09-.1.19-.1.11,0,.2.03.26.1.2.51.41,1.06.64,1.64.23.58.46,1.18.7,1.78.24.6.48,1.2.72,1.8.24.6.47,1.16.68,1.69.1.23.19.41.28.54.09.13.18.22.28.29.09.06.19.11.28.13.1.02.2.05.31.07.05,0,.08.03.1.08s.03.09.03.14,0,.09-.03.13c-.02.04-.05.06-.09.06-.26,0-.5-.02-.74-.05s-.5-.05-.8-.05c-.34,0-.65.02-.95.05s-.58.05-.85.05c-.06,0-.1-.02-.13-.07-.03-.04-.04-.09-.04-.15,0-.05.01-.09.04-.13s.06-.06.12-.07c.27-.03.47-.08.6-.14s.19-.2.19-.4c0-.06,0-.12-.02-.19-.01-.07-.04-.17-.08-.29s-.1-.28-.17-.48c-.07-.2-.17-.45-.29-.75-.04-.1-.09-.17-.16-.2-.07-.03-.18-.04-.33-.04h-2.11ZM4.84,5.08c.11,0,.19-.02.23-.05.04-.04.04-.1,0-.2l-1.04-2.81s-.05-.06-.1-.06-.08.02-.1.06l-1.09,2.81c-.04.1-.04.17-.01.2.03.03.09.05.18.05h1.93Z"/>
      <path class="cls-1" d="M10.37,2.33c0-.18,0-.35-.02-.52-.01-.17-.04-.32-.08-.47-.04-.14-.1-.27-.19-.37s-.2-.18-.34-.22c-.09-.02-.18-.04-.28-.06-.1-.02-.19-.03-.28-.04-.05,0-.08-.02-.11-.06s-.04-.08-.04-.13.01-.09.04-.13.06-.06.11-.06c.27,0,.52,0,.73.02.22.02.47.02.76.02.48,0,.88-.02,1.19-.03.32-.01.62-.02.91-.02.32,0,.64.04.95.11s.59.2.83.37c.24.17.44.39.59.66s.22.6.22.98c0,.3-.05.57-.14.79-.09.22-.22.42-.38.58-.16.16-.35.29-.57.39-.22.1-.46.18-.71.23-.06.02-.08.04-.08.08,0,.03.03.06.08.1.38.18.67.39.87.61s.36.46.47.7c.11.24.19.49.23.74.05.25.1.5.16.74.04.18.11.32.2.4.09.08.19.13.28.13s.19-.04.28-.12.16-.2.2-.36c.02-.06.05-.11.1-.13.05-.02.09-.02.14-.01.04.01.08.04.12.07s.05.07.04.11c-.02.2-.08.37-.17.52-.09.14-.19.26-.32.35-.12.09-.26.16-.42.2-.16.04-.31.07-.46.07-.26,0-.49-.06-.7-.17-.21-.11-.35-.27-.42-.48-.05-.14-.09-.28-.14-.44s-.09-.32-.13-.49-.08-.32-.12-.48c-.04-.16-.08-.29-.11-.41-.14-.51-.33-.88-.56-1.1-.23-.22-.55-.34-.95-.34-.14,0-.25.03-.35.08-.1.06-.14.17-.14.34v1.62c0,.27.03.49.08.65s.14.29.25.38c.11.09.25.16.41.2s.35.07.57.08c.05,0,.09.02.11.07.03.04.04.09.04.15,0,.05-.01.09-.04.13-.03.04-.07.06-.13.06-.4,0-.75-.02-1.06-.05s-.6-.05-.89-.05c-.3,0-.6.02-.9.05s-.58.05-.86.05c-.05,0-.08-.02-.11-.06-.02-.04-.04-.08-.04-.13,0-.05,0-.09.03-.14s.06-.07.12-.08c.22-.02.41-.06.55-.1.14-.04.26-.1.34-.19.08-.09.13-.2.16-.35.03-.14.04-.34.04-.58V2.33ZM11.68,3.76c0,.21.06.33.17.37.12.04.29.05.52.05.31,0,.57-.03.79-.09s.38-.16.51-.3c.13-.14.22-.32.27-.54.05-.22.08-.49.08-.81s-.03-.56-.08-.77c-.06-.21-.15-.38-.27-.52s-.29-.23-.49-.28c-.2-.06-.44-.08-.73-.08-.31,0-.52.04-.62.12-.1.08-.15.24-.15.49v2.36Z"/>
      <path class="cls-1" d="M20.41,6.82c0,.26.01.47.04.62s.08.26.16.34c.08.08.2.14.35.17.15.04.36.07.61.09.05,0,.09.03.11.08.03.04.04.09.04.14s-.01.09-.04.13c-.03.04-.07.06-.13.06-.32,0-.63-.02-.92-.05s-.58-.05-.87-.05c-.3,0-.62.02-.94.05-.32.03-.62.05-.88.05-.05,0-.08-.02-.11-.06-.02-.04-.04-.08-.04-.13s.01-.09.04-.14.06-.07.11-.08c.25-.02.45-.05.59-.09.15-.04.26-.09.35-.17.08-.08.14-.19.17-.34.03-.15.04-.35.04-.62V1.49c0-.3-.07-.48-.22-.56-.15-.08-.4-.11-.75-.11-.3,0-.54.02-.73.07-.19.04-.35.12-.47.24s-.22.27-.3.47c-.08.2-.15.46-.21.78,0,.05-.03.08-.08.1s-.09.02-.13.02c-.04,0-.08-.02-.12-.04-.04-.02-.05-.05-.05-.08.03-.3.05-.6.05-.91,0-.31-.01-.61-.05-.92,0-.09.06-.15.17-.18.11-.03.24-.05.37-.05h6.42c.15,0,.28.01.38.04.1.03.15.09.15.17-.02.1-.03.21-.04.35-.01.14-.02.29-.02.46s0,.34.02.52c.01.18.03.34.04.5,0,.03-.02.06-.06.09s-.08.04-.13.05c-.05,0-.09,0-.14-.02-.04-.02-.07-.05-.08-.1-.05-.32-.11-.58-.19-.79s-.19-.36-.32-.48c-.13-.12-.29-.2-.49-.24-.19-.04-.42-.07-.68-.07-.36,0-.62.04-.78.11-.16.08-.24.26-.24.56v5.33Z"/>
      <path class="cls-1" d="M28.42,2.33c0-.18,0-.35-.02-.52-.01-.17-.04-.32-.08-.47-.04-.14-.1-.27-.19-.37s-.2-.18-.34-.22c-.09-.02-.18-.04-.28-.06-.1-.02-.19-.03-.28-.04-.05,0-.08-.02-.11-.06s-.04-.08-.04-.13.01-.09.04-.13.06-.06.11-.06c.27,0,.52,0,.73.02.22.02.47.02.76.02.48,0,.88-.02,1.19-.03.32-.01.62-.02.91-.02.32,0,.64.04.95.11s.59.2.83.37c.24.17.44.39.59.66s.22.6.22.98c0,.3-.05.57-.14.79-.09.22-.22.42-.38.58-.16.16-.35.29-.57.39-.22.1-.46.18-.71.23-.06.02-.08.04-.08.08,0,.03.03.06.08.1.38.18.67.39.87.61s.36.46.47.7c.11.24.19.49.23.74.05.25.1.5.16.74.04.18.11.32.2.4.09.08.19.13.28.13s.19-.04.28-.12.16-.2.2-.36c.02-.06.05-.11.1-.13.05-.02.09-.02.14-.01.04.01.08.04.12.07s.05.07.04.11c-.02.2-.08.37-.17.52-.09.14-.19.26-.32.35-.12.09-.26.16-.42.2-.16.04-.31.07-.46.07-.26,0-.49-.06-.7-.17-.21-.11-.35-.27-.42-.48-.05-.14-.09-.28-.14-.44s-.09-.32-.13-.49-.08-.32-.12-.48c-.04-.16-.08-.29-.11-.41-.14-.51-.33-.88-.56-1.1-.23-.22-.55-.34-.95-.34-.14,0-.25.03-.35.08-.1.06-.14.17-.14.34v1.62c0,.27.03.49.08.65s.14.29.25.38c.11.09.25.16.41.2s.35.07.57.08c.05,0,.09.02.11.07.03.04.04.09.04.15,0,.05-.01.09-.04.13-.03.04-.07.06-.13.06-.4,0-.75-.02-1.06-.05s-.6-.05-.89-.05c-.3,0-.6.02-.9.05s-.58.05-.86.05c-.05,0-.08-.02-.11-.06-.02-.04-.04-.08-.04-.13,0-.05,0-.09.03-.14s.06-.07.12-.08c.22-.02.41-.06.55-.1.14-.04.26-.1.34-.19.08-.09.13-.2.16-.35.03-.14.04-.34.04-.58V2.33ZM29.73,3.76c0,.21.06.33.17.37.12.04.29.05.52.05.31,0,.57-.03.79-.09s.38-.16.51-.3c.13-.14.22-.32.27-.54.05-.22.08-.49.08-.81s-.03-.56-.08-.77c-.06-.21-.15-.38-.27-.52s-.29-.23-.49-.28c-.2-.06-.44-.08-.73-.08-.31,0-.52.04-.62.12-.1.08-.15.24-.15.49v2.36Z"/>
      <path class="cls-1" d="M39.34,8.5c-1.26,0-2.24-.36-2.95-1.07-.71-.71-1.07-1.78-1.07-3.19,0-.61.1-1.17.3-1.68.2-.51.48-.95.83-1.32.36-.37.78-.65,1.28-.86.5-.2,1.04-.31,1.64-.31s1.12.1,1.61.29c.49.2.91.47,1.26.83.35.36.63.79.82,1.3.2.51.29,1.07.29,1.7,0,.7-.11,1.31-.32,1.84-.21.53-.5.98-.86,1.34-.36.36-.79.64-1.28.83-.49.19-1.01.28-1.56.28ZM39.39,7.99c.39,0,.74-.1,1.04-.31.3-.21.55-.48.76-.82.21-.34.37-.73.47-1.18.11-.44.16-.91.16-1.39s-.04-.92-.13-1.37c-.08-.45-.22-.85-.41-1.19-.19-.35-.45-.63-.77-.84-.32-.21-.71-.32-1.18-.32-.43,0-.81.11-1.12.32-.32.22-.57.5-.77.85-.2.35-.35.74-.44,1.19-.1.44-.14.89-.14,1.35,0,.48.04.94.12,1.39.08.45.22.84.41,1.18.19.34.45.61.77.82.32.21.73.31,1.23.31Z"/>
      <path class="cls-1" d="M48.34,8.5c-1.26,0-2.24-.36-2.95-1.07-.71-.71-1.07-1.78-1.07-3.19,0-.61.1-1.17.3-1.68.2-.51.48-.95.83-1.32.36-.37.78-.65,1.28-.86.5-.2,1.04-.31,1.64-.31s1.12.1,1.61.29c.49.2.91.47,1.26.83.35.36.63.79.82,1.3.2.51.29,1.07.29,1.7,0,.7-.11,1.31-.32,1.84-.21.53-.5.98-.86,1.34-.36.36-.79.64-1.28.83-.49.19-1.01.28-1.56.28ZM48.39,7.99c.39,0,.74-.1,1.04-.31.3-.21.55-.48.76-.82.21-.34.37-.73.47-1.18.11-.44.16-.91.16-1.39s-.04-.92-.13-1.37c-.08-.45-.22-.85-.41-1.19-.19-.35-.45-.63-.77-.84-.32-.21-.71-.32-1.18-.32-.43,0-.81.11-1.12.32-.32.22-.57.5-.77.85-.2.35-.35.74-.44,1.19-.1.44-.14.89-.14,1.35,0,.48.04.94.12,1.39.08.45.22.84.41,1.18.19.34.45.61.77.82.32.21.73.31,1.23.31Z"/>
      <path class="cls-1" d="M54.38,1.78c0-.24-.02-.43-.05-.56-.04-.14-.1-.24-.18-.32-.08-.08-.19-.13-.33-.16-.14-.03-.31-.05-.52-.07-.05,0-.09-.02-.11-.07-.03-.04-.04-.09-.04-.14s.01-.09.04-.13c.03-.04.07-.06.11-.06h.32c.15,0,.32,0,.5,0,.18,0,.37,0,.57.01.2,0,.37.01.53.02.16.01.29.03.4.05s.17.05.19.08l2.44,5.72s.03.04.05.04c.02,0,.04-.01.06-.04l2.4-5.72s.11-.06.31-.08c.2-.02.42-.04.68-.05.26-.01.52-.02.79-.03.27,0,.48-.01.64-.01.05,0,.08.02.1.06s.03.08.03.13-.01.09-.04.13-.06.06-.1.07c-.27.05-.48.09-.64.13s-.26.11-.34.22c-.07.11-.12.27-.13.47-.02.21-.02.5-.02.89v4.43c0,.26.02.47.05.62.03.15.09.26.17.34.08.08.2.14.35.17.15.04.35.07.59.09.05,0,.09.03.11.08.03.04.04.09.04.14s-.01.09-.04.13c-.03.04-.07.06-.13.06-.32,0-.63-.02-.92-.05-.29-.03-.58-.05-.87-.05-.3,0-.62.02-.94.05-.32.03-.62.05-.88.05-.05,0-.08-.02-.11-.06-.02-.04-.04-.08-.04-.13s.01-.09.04-.14.06-.07.11-.08c.25-.02.45-.05.59-.09.15-.04.26-.09.35-.17.08-.08.14-.19.17-.34.03-.15.04-.35.04-.62V2.36c0-.06-.03-.08-.1-.08s-.1.03-.12.08l-1.73,4.07c-.12.28-.24.59-.35.92-.12.33-.23.67-.34,1,0,.02-.03.04-.07.05-.04.01-.07.02-.11.02s-.08,0-.11-.02c-.04-.01-.06-.03-.07-.05l-2.64-6.05s-.05-.06-.1-.07c-.05,0-.08.02-.08.08v4.46c0,.29.02.51.07.67.05.16.12.28.21.36.09.08.21.13.34.16.14.03.3.05.48.08.04,0,.07.03.09.07.02.04.03.08.03.13s-.01.09-.03.13c-.02.04-.05.06-.1.06-.18,0-.37-.02-.58-.05-.21-.03-.46-.05-.75-.05-.3,0-.57.02-.81.05-.24.03-.43.05-.59.05-.04,0-.07-.02-.1-.06-.02-.04-.04-.08-.04-.13,0-.05,0-.09.03-.13s.06-.06.11-.07c.21-.02.38-.05.52-.08.14-.03.25-.08.34-.16.08-.08.14-.2.18-.36s.05-.38.05-.67V1.78Z"/>
      <path class="cls-2" d="M74.72,7.42c0,.06-.02.1-.06.12-.21.15-.41.29-.6.41-.19.12-.41.23-.65.31-.24.08-.53.15-.85.19s-.71.07-1.17.07c-.66,0-1.24-.09-1.75-.28-.51-.19-.93-.46-1.28-.82-.34-.36-.61-.79-.79-1.31s-.27-1.11-.27-1.78.11-1.29.32-1.82c.21-.53.51-.98.88-1.34.38-.36.82-.63,1.34-.82s1.08-.28,1.69-.28c.38,0,.75.05,1.1.16.35.1.67.23.97.37.17.08.31.13.42.14.11.02.2-.06.25-.22,0-.04.03-.07.08-.08.04-.02.09-.02.13-.02.04,0,.08.02.11.04.03.02.04.05.04.08-.07.3-.1.64-.08,1.02.02.38.05.76.09,1.15,0,.04-.02.08-.06.11-.04.03-.08.05-.13.06-.05,0-.1,0-.14-.02-.05-.02-.08-.05-.08-.1-.11-.7-.41-1.23-.89-1.6-.48-.37-1.1-.56-1.85-.56-.46,0-.86.11-1.19.32-.33.21-.6.49-.82.82-.21.34-.37.72-.47,1.14-.1.42-.15.84-.15,1.26,0,.58.06,1.11.17,1.59.12.48.29.88.52,1.22s.51.6.83.79c.33.18.71.28,1.14.28.31,0,.6-.02.85-.07.26-.04.47-.12.65-.23.18-.11.32-.27.42-.46.1-.2.15-.45.15-.75,0-.24-.02-.43-.05-.56-.03-.14-.09-.24-.18-.31-.09-.07-.21-.12-.36-.15s-.35-.05-.59-.08c-.06,0-.1-.02-.12-.06s-.04-.08-.04-.12c0-.05.01-.09.03-.13.02-.04.05-.05.1-.05.28,0,.57.01.87.03.3.02.57.03.8.03.11,0,.22,0,.32-.01.1,0,.2-.01.31-.02.11,0,.22,0,.35-.02.12,0,.27-.01.43-.01.04,0,.07.02.09.05.02.04.03.08.03.13,0,.04-.01.08-.04.11s-.06.06-.11.07c-.18.02-.31.04-.41.08-.1.04-.17.1-.21.17-.04.07-.07.16-.08.27,0,.11-.01.24-.01.39v1.1Z"/>
      <path class="cls-2" d="M78.43,5.54c-.11,0-.19.02-.24.05-.05.04-.09.1-.13.19l-.54,1.42c-.04.12-.06.21-.06.28,0,.1.03.19.08.26.05.07.12.12.21.16.09.04.19.07.3.1.11.02.23.04.35.05.06,0,.1.02.12.07.02.04.04.09.04.14s-.01.09-.04.14c-.02.04-.06.07-.12.07-.19,0-.41-.02-.66-.05s-.48-.05-.71-.05c-.21,0-.41.02-.6.05-.19.03-.4.05-.62.05-.04,0-.07-.02-.1-.06-.03-.04-.04-.08-.05-.13,0-.05,0-.09.02-.14s.06-.07.11-.08l.18-.02c.12-.02.23-.05.33-.09.1-.04.19-.09.28-.17.08-.08.17-.19.25-.32.08-.13.16-.3.24-.51L79.77.1c.02-.06.09-.1.19-.1.11,0,.2.03.26.1.2.51.41,1.06.64,1.64.23.58.46,1.18.7,1.78.24.6.48,1.2.72,1.8.24.6.47,1.16.68,1.69.1.23.19.41.28.54.09.13.18.22.28.29.09.06.19.11.28.13.1.02.2.05.31.07.05,0,.08.03.1.08s.03.09.03.14,0,.09-.03.13c-.02.04-.05.06-.09.06-.26,0-.5-.02-.74-.05s-.5-.05-.8-.05c-.34,0-.65.02-.95.05s-.58.05-.85.05c-.06,0-.1-.02-.13-.07-.03-.04-.04-.09-.04-.15,0-.05.01-.09.04-.13s.06-.06.12-.07c.27-.03.47-.08.6-.14s.19-.2.19-.4c0-.06,0-.12-.02-.19-.01-.07-.04-.17-.08-.29s-.1-.28-.17-.48c-.07-.2-.17-.45-.29-.75-.04-.1-.09-.17-.16-.2-.07-.03-.18-.04-.33-.04h-2.11ZM80.49,5.08c.11,0,.19-.02.23-.05.04-.04.04-.1,0-.2l-1.04-2.81s-.05-.06-.1-.06-.08.02-.1.06l-1.09,2.81c-.04.1-.04.17-.01.2.03.03.09.05.18.05h1.93Z"/>
      <path class="cls-2" d="M86.01,2.11c0-.25-.01-.46-.04-.64-.03-.18-.08-.32-.16-.43-.08-.11-.19-.2-.34-.26-.15-.06-.35-.1-.59-.11-.05,0-.08-.02-.11-.07s-.04-.09-.04-.14.01-.09.04-.13.06-.06.11-.06c.26,0,.55.01.88.04s.64.04.92.04c.17,0,.33,0,.47-.01.15,0,.29-.02.43-.02.14,0,.28-.02.43-.02s.3-.01.47-.01c.05,0,.08.02.1.06.02.04.03.08.02.13,0,.05-.02.09-.04.14s-.06.07-.1.07c-.25.02-.45.05-.6.1-.15.05-.27.13-.35.24-.08.11-.13.25-.16.43-.02.18-.04.4-.04.67v4.18c0,.26.01.47.04.64.02.17.07.32.13.43.06.12.15.21.26.27.11.06.25.12.42.17.11.02.24.04.38.05.14.01.29.02.44.02.19,0,.37,0,.54-.02.17-.02.3-.04.38-.07.16-.06.3-.12.41-.18.12-.06.21-.15.29-.25.08-.1.15-.23.2-.39.05-.16.09-.35.13-.59,0-.05.04-.08.08-.1.05-.02.1-.02.16-.02s.11.01.15.04.06.06.05.1c-.04.34-.08.65-.11.94-.03.29-.04.59-.04.89,0,.02-.02.06-.05.1-.03.04-.11.07-.23.07h-4.36c-.31,0-.61,0-.9.03-.29.02-.57.04-.85.05-.06,0-.1-.02-.13-.06-.03-.04-.04-.08-.04-.13s.01-.09.04-.14c.03-.04.07-.07.13-.08.25-.03.45-.07.6-.1.15-.04.27-.09.35-.17.08-.08.13-.19.16-.34.03-.15.04-.35.04-.62V2.12h0Z"/>
      <path class="cls-2" d="M93.32,2.11c0-.25-.01-.46-.04-.64-.03-.18-.08-.32-.16-.43-.08-.11-.19-.2-.34-.26-.15-.06-.35-.1-.59-.11-.05,0-.08-.02-.11-.07s-.04-.09-.04-.14.01-.09.04-.13.06-.06.11-.06c.26,0,.55.01.88.04s.64.04.92.04c.17,0,.33,0,.47-.01.15,0,.29-.02.43-.02.14,0,.28-.02.43-.02s.3-.01.47-.01c.05,0,.08.02.1.06.02.04.03.08.02.13,0,.05-.02.09-.04.14s-.06.07-.1.07c-.25.02-.45.05-.6.1-.15.05-.27.13-.35.24-.08.11-.13.25-.16.43-.02.18-.04.4-.04.67v4.18c0,.26.01.47.04.64.02.17.07.32.13.43.06.12.15.21.26.27.11.06.25.12.42.17.11.02.24.04.38.05.14.01.29.02.44.02.19,0,.37,0,.54-.02.17-.02.3-.04.38-.07.16-.06.3-.12.41-.18.12-.06.21-.15.29-.25.08-.1.15-.23.2-.39.05-.16.09-.35.13-.59,0-.05.04-.08.08-.1.05-.02.1-.02.16-.02s.11.01.15.04.06.06.05.1c-.04.34-.08.65-.11.94-.03.29-.04.59-.04.89,0,.02-.02.06-.05.1-.03.04-.11.07-.23.07h-4.36c-.31,0-.61,0-.9.03-.29.02-.57.04-.85.05-.06,0-.1-.02-.13-.06-.03-.04-.04-.08-.04-.13s.01-.09.04-.14c.03-.04.07-.07.13-.08.25-.03.45-.07.6-.1.15-.04.27-.09.35-.17.08-.08.13-.19.16-.34.03-.15.04-.35.04-.62V2.12h0Z"/>
      <path class="cls-2" d="M105.26.31c.06,0,.13,0,.19.02s.08.08.07.19c-.02.09-.02.19-.02.3v.34c0,.36.01.7.04,1.01,0,.03-.02.06-.05.08s-.08.03-.13.04-.09,0-.14-.02c-.04-.02-.07-.05-.08-.1-.06-.31-.11-.56-.17-.73-.06-.18-.13-.31-.23-.4s-.24-.15-.41-.17c-.17-.02-.4-.04-.68-.05h-.72c-.21,0-.37,0-.5.01s-.22.04-.29.09c-.07.05-.12.13-.14.25s-.04.27-.04.47v2.1c0,.11.02.18.06.21.04.03.08.04.12.04.37,0,.66-.02.87-.05.21-.03.37-.09.48-.17.11-.08.18-.19.22-.33.04-.14.07-.31.09-.53,0-.05.03-.08.07-.11.04-.02.08-.04.13-.04s.09.01.13.04.06.06.06.11c0,.13,0,.24-.01.34,0,.1-.02.2-.02.3,0,.1-.02.2-.02.31,0,.11-.01.23-.01.38,0,.24.01.46.04.65.02.2.04.43.04.71,0,.04-.02.07-.06.09-.04.02-.08.03-.13.02-.05,0-.09-.02-.13-.04-.04-.02-.06-.05-.07-.1-.02-.23-.05-.42-.09-.56s-.11-.25-.22-.33c-.11-.08-.27-.13-.48-.16-.21-.03-.5-.04-.87-.04-.04,0-.08.01-.12.04-.04.03-.06.09-.06.17v1.57c0,.26.02.47.05.65.04.18.09.33.16.44.07.12.16.21.26.28.1.07.23.12.37.15.11.02.24.04.38.05s.29.02.44.02c.19,0,.37,0,.54-.02s.3-.04.38-.07c.16-.06.3-.12.41-.18.12-.06.21-.15.29-.25.08-.1.15-.23.2-.39.05-.16.09-.35.13-.59,0-.05.04-.08.08-.1s.1-.02.16-.02.11.01.15.04.06.06.05.1c-.04.34-.08.65-.11.94s-.04.59-.04.89c0,.02-.02.06-.05.1s-.11.07-.23.07h-4.36c-.3,0-.6,0-.89.02s-.55.03-.79.05c-.06,0-.11-.02-.14-.05-.03-.04-.05-.08-.06-.13,0-.05,0-.1.04-.14.03-.04.08-.07.16-.08.19-.02.36-.06.49-.1.14-.04.25-.11.34-.19.09-.08.15-.19.2-.32.04-.13.07-.29.07-.49V2.32c0-.18,0-.35-.02-.52-.01-.17-.04-.32-.08-.47s-.1-.27-.19-.37-.2-.18-.34-.22c-.09-.02-.18-.04-.28-.06-.1-.02-.19-.03-.28-.04-.05,0-.08-.02-.11-.06s-.04-.08-.04-.13.01-.09.04-.13.06-.06.11-.06c.27,0,.52,0,.73.02s.47.02.76.02h4.31Z"/>
      <path class="cls-2" d="M107.84,2.33c0-.18,0-.35-.02-.52-.01-.17-.04-.32-.08-.47-.04-.14-.1-.27-.19-.37s-.2-.18-.34-.22c-.09-.02-.18-.04-.28-.06-.1-.02-.19-.03-.28-.04-.05,0-.08-.02-.11-.06s-.04-.08-.04-.13.01-.09.04-.13.06-.06.11-.06c.27,0,.52,0,.73.02.22.02.47.02.76.02.48,0,.88-.02,1.19-.03.32-.01.62-.02.91-.02.32,0,.64.04.95.11s.59.2.83.37c.24.17.44.39.59.66s.22.6.22.98c0,.3-.05.57-.14.79-.09.22-.22.42-.38.58-.16.16-.35.29-.57.39-.22.1-.46.18-.71.23-.06.02-.08.04-.08.08,0,.03.03.06.08.1.38.18.67.39.87.61s.36.46.47.7c.11.24.19.49.23.74.05.25.1.5.16.74.04.18.11.32.2.4.09.08.19.13.28.13s.19-.04.28-.12.16-.2.2-.36c.02-.06.05-.11.1-.13.05-.02.09-.02.14-.01.04.01.08.04.12.07s.05.07.04.11c-.02.2-.08.37-.17.52-.09.14-.19.26-.32.35-.12.09-.26.16-.42.2-.16.04-.31.07-.46.07-.26,0-.49-.06-.7-.17-.21-.11-.35-.27-.42-.48-.05-.14-.09-.28-.14-.44s-.09-.32-.13-.49-.08-.32-.12-.48c-.04-.16-.08-.29-.11-.41-.14-.51-.33-.88-.56-1.1-.23-.22-.55-.34-.95-.34-.14,0-.25.03-.35.08-.1.06-.14.17-.14.34v1.62c0,.27.03.49.08.65s.14.29.25.38c.11.09.25.16.41.2s.35.07.57.08c.05,0,.09.02.11.07.03.04.04.09.04.15,0,.05-.01.09-.04.13-.03.04-.07.06-.13.06-.4,0-.75-.02-1.06-.05s-.6-.05-.89-.05c-.3,0-.6.02-.9.05s-.58.05-.86.05c-.05,0-.08-.02-.11-.06-.02-.04-.04-.08-.04-.13,0-.05,0-.09.03-.14s.06-.07.12-.08c.22-.02.41-.06.55-.1.14-.04.26-.1.34-.19.08-.09.13-.2.16-.35.03-.14.04-.34.04-.58V2.33ZM109.15,3.76c0,.21.06.33.17.37.12.04.29.05.52.05.31,0,.57-.03.79-.09s.38-.16.51-.3c.13-.14.22-.32.27-.54.05-.22.08-.49.08-.81s-.03-.56-.08-.77c-.06-.21-.15-.38-.27-.52s-.29-.23-.49-.28c-.2-.06-.44-.08-.73-.08-.31,0-.52.04-.62.12-.1.08-.15.24-.15.49v2.36Z"/>
      <path class="cls-2" d="M118.87,6.83c0,.26.02.47.05.62.03.15.09.26.17.34s.2.14.35.17c.15.04.35.07.59.09.05,0,.09.03.11.08.03.04.04.09.04.14s-.01.09-.04.13c-.03.04-.07.06-.13.06-.32,0-.63-.02-.92-.05-.29-.04-.58-.05-.87-.05-.3,0-.62.02-.94.05-.32.04-.62.05-.88.05-.05,0-.08-.02-.11-.06s-.04-.08-.04-.13.01-.09.04-.14.06-.07.11-.08c.25-.02.45-.05.59-.09.15-.04.26-.09.35-.17s.14-.19.17-.34c.03-.15.04-.35.04-.62v-1.57l-1.03-2c-.03-.06-.11-.2-.22-.41-.12-.21-.25-.43-.4-.68s-.3-.48-.45-.71c-.15-.23-.28-.39-.37-.5-.1-.11-.23-.18-.37-.2s-.31-.05-.52-.08c-.04,0-.07-.03-.1-.07-.02-.04-.04-.08-.04-.13s.01-.09.04-.13c.02-.04.06-.06.1-.06.32,0,.62.01.9.04.28.02.56.04.83.04.3,0,.59-.01.89-.04.3-.02.58-.04.86-.04.06,0,.1.02.12.06s.04.08.04.13-.01.09-.04.13c-.03.04-.07.06-.11.07-.3.03-.52.08-.64.16-.12.07-.19.18-.19.31,0,.15.08.37.23.66l1.43,2.72s.05.07.08.09c.03.02.07,0,.12-.09.22-.36.43-.71.63-1.06.2-.35.37-.67.52-.97.15-.3.26-.55.35-.77.08-.22.13-.39.13-.5,0-.12-.02-.21-.05-.28-.04-.07-.09-.12-.16-.16-.07-.04-.16-.06-.26-.07-.1-.01-.21-.03-.33-.04-.05,0-.08-.03-.1-.07s-.03-.08-.03-.13.01-.09.04-.13.06-.06.1-.06c.3,0,.55.01.77.04.22.02.44.04.67.04.18,0,.37-.01.57-.04.2-.02.41-.04.64-.04.05,0,.08.02.1.06s.03.08.02.13c0,.05-.02.09-.04.14s-.06.07-.1.07c-.3.02-.57.17-.83.43-.16.16-.3.34-.43.54-.12.2-.23.38-.32.53l-1.73,2.96v1.69Z"/>
    </g>
  </g>
</svg>