<?xml version="1.0" encoding="UTF-8"?>
<svg id="Layer_2" data-name="Layer 2" xmlns="http://www.w3.org/2000/svg" viewBox="0 0 280.92 22.51">
  <defs>
    <style>
      .cls-1, .cls-2 {
        fill: currentColor;
      }

      .cls-2 {
        fill-rule: evenodd;
      }
    </style>
  </defs>
  <g id="Layer_1-2" data-name="Layer 1">
    <path class="cls-1" d="M1.48,9.59c1.3-.63,2.67.27,3.04,1.24.45,1.21,0,2.63-1.22,3.09-1.08.41-2.5-.03-3.06-1.03-.56-1.01-.14-2.63,1.24-3.3Z"/>
    <path class="cls-1" d="M277.71,9.59c1.3-.63,2.67.27,3.04,1.24.45,1.21,0,2.63-1.22,3.09-1.08.41-2.5-.03-3.06-1.03-.56-1.01-.14-2.63,1.24-3.3Z"/>
    <path class="cls-1" d="M189.86,10.69c0,4.85,2.87,10.39,7.98,10.39,4.82,0,7.49-4.95,7.49-9.74s-2.77-9.91-7.95-9.91c-4.85,0-7.53,4.53-7.53,9.25ZM185.95,11.57c0-5.8,4.17-11.57,12.09-11.57,7.23,0,11.24,4.85,11.24,10.49,0,6.03-4.59,12.02-12.15,12.02-7.07,0-11.18-5.21-11.18-10.95Z"/>
    <path class="cls-1" d="M215.93,10.69c0,4.85,2.87,10.39,7.98,10.39,4.82,0,7.49-4.95,7.49-9.74s-2.77-9.91-7.95-9.91c-4.86,0-7.53,4.53-7.53,9.25ZM212.02,11.57c0-5.8,4.17-11.57,12.09-11.57,7.23,0,11.24,4.85,11.24,10.49,0,6.03-4.59,12.02-12.15,12.02-7.07,0-11.18-5.21-11.18-10.95Z"/>
    <path class="cls-1" d="M61.42,21.96v-.48c0-.32.24-.58.55-.65,1.18-.28,1.96-.98,1.96-1.99V3.39c0-1.45-.14-1.84-2.07-2.27-.29-.06-.5-.32-.5-.62V.13h13.75c1.33,0,2.41-.13,2.41-.13l-.92,5.06c-.06.3-.31.51-.61.51h-.65c.16-3.36-.91-3.97-3.52-3.97h-3.75c-.16,0-.32.06-.43.18-.11.11-.18.27-.18.43v7.77c0,.07.06.13.13.13h5.68l.2-1.43c.04-.27.25-.49.53-.53l.81-.12v5.14h-1.47c-.07,0-.13-.06-.13-.13v-1.49h-5.61c-.07,0-.13.06-.13.13v6.91c0,.39-.03.77-.06,1.07-.04.39.26.75.65.75h4.13c2.7,0,3.16-.48,4.65-3.58.11-.22.33-.36.56-.36h.78l-1.15,5.16c-.03.14-.16.25-.31.25h-9.94c-1.89,0-5.58.1-5.58.1h.23Z"/>
    <path class="cls-1" d="M265.9.26c.08.17-.04.37-.22.4-.71.11-2.1.52-2.1,2.16l.64,16.11c0,.08,0,.15,0,.22,0,.76.58,1.48,1.34,1.52l1.41.08c.36.02.64.35.59.71l-.04.57s-3.53-.1-5.2-.09c-1.66,0-4.25.09-4.25.09h0s0-.55,0-.55c0-.32.24-.58.55-.66,1.07-.28,1.7-1,1.7-2.02h0s0,0,0,0l-.19-14.56-7.86,17.37c-.11.25-.46.25-.57,0l-7.69-17.37-.38,14.7v.53c0,.64.49,1.18,1.13,1.25l2.19.22c.35.04.6.36.56.71l-.04.34s-3.66-.05-4.88-.04c-1.22.01-3.13.09-3.13.09v-.61c0-.32.24-.58.55-.65,1.1-.26,1.74-.91,1.79-1.93l.65-15.44c.06-1.45-.5-2.14-2.51-2.65-.28-.07-.48-.32-.48-.61h2.93c2.9,0,3.51-.13,3.52-.13l.13.13c1.56,4.87,6.85,16.53,6.88,16.58l5.83-14.3c.17-.45.43-1.3.58-1.83.08-.27.33-.45.61-.45h.7c2.74,0,5.14-.13,5.14-.13l.13.26Z"/>
    <path class="cls-2" d="M99.3.11c.3-.07.61.1.72.38l7.01,18.04c.45,1.17.75,1.77,1.19,2.1.49.37,1,.78,1,1.39,0,0-2.11-.09-3.45-.09-1.34,0-3.43.09-3.43.09,0-.58.22-1.02.61-1.14.6-.18,1.11-.29.73-1.27l-1.64-4.38c-.09-.24-.33-.41-.59-.41h-6.96c-.21,0-.4.13-.48.33l-1.51,3.98c-.28.75.19,1.57.99,1.68l.39.06c.53.08.93.6.93,1.14,0,0-2.22-.1-3.45-.09-1.22,0-3.13.09-3.13.09h0s0-.55,0-.55c0-.32.24-.58.55-.66.7-.14,1.23-.19,1.64-1.08.04-.09.09-.19.13-.29L97.95.97c.15-.38.49-.67.89-.76l.46-.1ZM98.24,4.73c-.04-.12-.2-.12-.24,0l-3.22,8.4c-.03.08.03.17.12.17h6.25c.09,0,.15-.09.12-.17l-2.41-6.54c-.19-.56-.43-1.28-.61-1.85Z"/>
    <path class="cls-1" d="M33.9,5.69c0,.11-.12.16-.19.09-1.33-1.34-.95-4.12-5.26-4.12h-2.69c-.34,0-.63.28-.63.63v16.51h0c0,1.02.63,1.74,1.7,2.02.31.08.55.34.55.66v.55h0s-2.44-.18-4-.18-4,.17-4,.17v-.55c0-.32.23-.58.55-.66,1.07-.28,1.7-1,1.7-2.02V2.29c0-.34-.28-.63-.63-.63h-2.41c-3.16,0-3.39,3.97-4.66,3.97h-.31l.38-5.64s.86.2,2.19.2h15.61c1.33,0,2.12-.2,2.12-.2v5.69Z"/>
    <path class="cls-1" d="M154.13,5.69c0,.11-.12.16-.19.09-1.33-1.34-.95-4.12-5.26-4.12h-2.69c-.34,0-.63.28-.63.63v16.51h0c0,1.02.63,1.74,1.7,2.02.31.08.55.34.55.66v.55h0s-2.44-.18-4-.18-4,.17-4,.17v-.55c0-.32.23-.58.55-.66,1.07-.28,1.7-1,1.7-2.02V2.29c0-.34-.28-.63-.63-.63h-2.41c-3.16,0-3.39,3.97-4.66,3.97h-.31l.38-5.64s.86.2,2.19.2h15.61c1.33,0,2.12-.2,2.12-.2v5.69Z"/>
    <path class="cls-1" d="M43.82.13s-1.08,1.3-1.08,4.01v5.9h11.69V3.39c0-1.44,0-1.83-1.84-2.27-.29-.07-.5-.33-.5-.62V.13h2.47c3.45,0,4.3-.1,4.3-.1l.16.13s-1.08,1.27-1.08,3.97l-.03,14.67c0,.98.63,1.68,1.7,1.96.31.08.55.33.55.64v.53h0s-2.65-.08-4.3-.08c-1.65,0-4.22.11-4.22.11v-.17c0-.32.24-.58.55-.67,1.2-.36,2.24-1.37,2.24-2.39v-7.14s-11.69,0-11.69,0l-.02,7.21c0,.98.63,1.68,1.7,1.96.31.08.55.33.55.64v.53h0s-2.6-.08-4.26-.08c-1.66,0-4.26.11-4.26.11v-.17c0-.32.24-.58.55-.67,1.2-.36,2.24-1.37,2.24-2.39V3.39c0-1.44,0-1.83-1.82-2.27-.29-.07-.5-.33-.5-.62V.13h2.44c3.42,0,4.28-.13,4.3-.13l.16.13Z"/>
    <path class="cls-2" d="M121.87.12c5.8,0,8.02,2.48,8.02,5.25s-2.27,4.67-3.89,5.64c-.17.1-.28.28-.28.48,0,.11.03.22.09.31l4.6,6.83c1.37,1.95,1.99,2.02,2.74,2.09l.09.03c1.11.14,1.88.59,1.88,1.11h-7.15l-.13-.1s-.55-1.53-1.96-3.58l-3.69-5.52c-.12-.17-.31-.28-.52-.28h-1.62c-.2,0-.36.16-.36.36v6.06h0c0,1.02.63,1.74,1.7,2.02.31.08.55.34.55.66v.55h0s-2.52-.06-4.14-.07c-1.62-.01-4.39.07-4.39.07v-.24c0-.32.24-.58.54-.67,1.17-.35,2.22-1.33,2.22-2.29V3.38c0-1.45.09-1.83-1.8-2.27-.29-.07-.5-.32-.5-.62V.12h8ZM120,1.59c-.17,0-.31.14-.31.31v8.72c0,.17.14.31.31.31h2.29c1.73,0,3.71-1.56,3.71-4.66,0-2.54-1.34-4.69-4.92-4.69h-1.09Z"/>
    <path class="cls-2" d="M173.5,0c5.8,0,8.02,2.48,8.02,5.25s-2.27,4.67-3.89,5.64c-.17.1-.28.28-.28.48,0,.11.03.22.09.31l4.6,6.83c1.37,1.95,1.99,2.02,2.74,2.09l.09.03c1.11.14,1.88.59,1.88,1.11h-7.15l-.13-.1s-.55-1.53-1.96-3.58l-3.69-5.52c-.12-.17-.31-.28-.52-.28h-1.62c-.2,0-.36.16-.36.36v6.06h0c0,1.02.63,1.74,1.7,2.02.31.08.55.34.55.66v.54h0s-2.52-.06-4.14-.07c-1.61-.01-4.39.07-4.39.07v-.24c0-.32.24-.58.54-.67,1.17-.35,2.22-1.33,2.22-2.29V3.26c0-1.45.09-1.83-1.8-2.27-.29-.07-.5-.32-.5-.62v-.37h8ZM171.63,1.47c-.17,0-.31.14-.31.31v8.72c0,.17.14.31.31.31h2.29c1.73,0,3.71-1.56,3.71-4.66,0-2.54-1.34-4.69-4.92-4.69h-1.09Z"/>
  </g>
</svg>