<?xml version="1.0" encoding="UTF-8"?>
<svg id="Layer_1" data-name="Layer 1" xmlns="http://www.w3.org/2000/svg" viewBox="0 0 85 32">
  <defs>
    <style>
      .cls-1 {
        fill: none;
      }

      .cls-2 {
        fill: #231f20;
      }

      .cls-3 {
        fill: #ef4136;
      }
    </style>
  </defs>
  <g>
    <path class="cls-2" d="M4.38,6.55c0,.26.01.47.04.62s.08.26.16.34c.08.08.2.14.35.17.15.04.36.07.61.09.05,0,.09.03.11.08.03.04.04.09.04.14s-.01.09-.04.13c-.03.04-.07.06-.13.06-.32,0-.63-.02-.92-.05s-.58-.05-.87-.05c-.3,0-.62.02-.94.05-.32.03-.62.05-.88.05-.05,0-.08-.02-.11-.06-.02-.04-.04-.08-.04-.13s.01-.09.04-.14.06-.07.11-.08c.25-.02.45-.05.59-.09.15-.04.26-.09.35-.17.08-.08.14-.19.17-.34.03-.15.04-.35.04-.62V1.22c0-.3-.07-.48-.22-.56-.15-.08-.4-.11-.75-.11-.3,0-.54.02-.73.07-.19.04-.35.12-.47.24s-.22.27-.3.47c-.08.2-.15.46-.21.78,0,.05-.03.08-.08.1s-.09.02-.13.02c-.04,0-.08-.02-.12-.04-.04-.02-.05-.05-.05-.08.03-.3.05-.6.05-.91,0-.31-.01-.61-.05-.92,0-.09.06-.15.17-.18.11-.03.24-.05.37-.05h6.42c.15,0,.28.01.38.04.1.03.15.09.15.17-.02.1-.03.21-.04.35-.01.14-.02.29-.02.46s0,.34.02.52c.01.18.03.34.04.5,0,.03-.02.06-.06.09s-.08.04-.13.05c-.05,0-.09,0-.14-.02-.04-.02-.07-.05-.08-.1-.05-.32-.11-.58-.19-.79s-.19-.36-.32-.48c-.13-.12-.29-.2-.49-.24-.19-.04-.42-.07-.68-.07-.36,0-.62.04-.78.11-.16.08-.24.26-.24.56v5.33Z"/>
    <path class="cls-2" d="M14.38,3.72c.1,0,.17-.02.21-.05.04-.03.07-.1.07-.19v-1.63c0-.25-.01-.46-.04-.64-.03-.18-.08-.32-.16-.43-.08-.11-.19-.2-.34-.26s-.35-.1-.59-.11c-.05,0-.08-.02-.11-.07-.02-.04-.04-.09-.04-.14s.01-.09.04-.13c.02-.04.06-.06.11-.06.26,0,.55.01.88.04.33.02.64.04.92.04.17,0,.33,0,.47-.01.15,0,.29-.02.43-.02.14,0,.28-.02.43-.02s.3-.01.47-.01c.05,0,.08.02.1.06.02.04.03.08.02.13,0,.05-.02.09-.04.14-.02.04-.06.07-.1.07-.25.02-.45.05-.6.1-.15.05-.27.13-.35.24-.08.11-.13.25-.16.43-.02.18-.04.4-.04.67v4.7c0,.26.02.47.05.62.03.15.09.26.17.35.08.08.2.14.35.18s.35.07.59.09c.05,0,.09.03.11.07.03.04.04.08.04.13s-.01.09-.04.13c-.03.04-.07.06-.13.06-.32,0-.63-.02-.92-.05-.29-.03-.58-.05-.87-.05-.3,0-.62.02-.94.05-.32.03-.62.05-.88.05-.05,0-.08-.02-.11-.06-.02-.04-.04-.08-.04-.13s.01-.09.04-.13.06-.06.11-.07c.25-.02.45-.05.59-.09.15-.04.26-.1.35-.18.08-.08.14-.2.17-.35.03-.15.04-.35.04-.62v-1.99c0-.21-.09-.31-.26-.31h-3.59c-.18,0-.26.08-.26.24v2.06c0,.26.02.47.05.62.03.15.09.26.17.35.08.08.2.14.35.18.15.04.35.07.59.09.05,0,.09.03.11.07.03.04.04.08.04.13s-.01.09-.04.13c-.03.04-.07.06-.13.06-.32,0-.63-.02-.92-.05s-.58-.05-.87-.05c-.3,0-.62.02-.94.05-.32.03-.62.05-.88.05-.05,0-.08-.02-.11-.06-.02-.04-.04-.08-.04-.13s.01-.09.04-.13.06-.06.11-.07c.25-.02.45-.05.59-.09s.26-.1.35-.18c.08-.08.14-.2.17-.35s.04-.35.04-.62V1.85c0-.25-.01-.46-.04-.64s-.08-.32-.16-.43c-.08-.11-.19-.2-.34-.26s-.35-.1-.59-.11c-.05,0-.08-.02-.11-.07s-.04-.09-.04-.14.01-.09.04-.13.06-.06.11-.06c.26,0,.55.01.88.04.33.02.64.04.92.04.17,0,.33,0,.47-.01.15,0,.29-.02.43-.02.14,0,.28-.02.43-.02s.3-.01.47-.01c.05,0,.08.02.1.06s.03.08.02.13c0,.05-.02.09-.04.14s-.06.07-.1.07c-.25.02-.45.05-.6.1-.15.05-.27.13-.35.24-.08.11-.13.25-.16.43-.02.18-.04.4-.04.67v1.63c0,.16.09.24.26.24h3.58Z"/>
    <path class="cls-2" d="M23.82.05c.06,0,.13,0,.19.02s.08.08.07.19c-.02.09-.02.19-.02.3v.34c0,.36.01.7.04,1.01,0,.03-.02.06-.05.08s-.08.03-.13.04-.09,0-.14-.02c-.04-.02-.07-.05-.08-.1-.06-.31-.11-.56-.17-.73-.06-.18-.13-.31-.23-.4s-.24-.15-.41-.17c-.17-.02-.4-.04-.68-.05h-.72c-.21,0-.37,0-.5.01s-.22.04-.29.09c-.07.05-.12.13-.14.25s-.04.27-.04.47v2.1c0,.11.02.18.06.21.04.03.08.04.12.04.37,0,.66-.02.87-.05.21-.03.37-.09.48-.17.11-.08.18-.19.22-.33.04-.14.07-.31.09-.53,0-.05.03-.08.07-.11.04-.02.08-.04.13-.04s.09.01.13.04.06.06.06.11c0,.13,0,.24-.01.34,0,.1-.02.2-.02.3,0,.1-.02.2-.02.31,0,.11-.01.23-.01.38,0,.24.01.46.04.65.02.2.04.43.04.71,0,.04-.02.07-.06.09-.04.02-.08.03-.13.02-.05,0-.09-.02-.13-.04-.04-.02-.06-.05-.07-.1-.02-.23-.05-.42-.09-.56s-.11-.25-.22-.33c-.11-.08-.27-.13-.48-.16-.21-.03-.5-.04-.87-.04-.04,0-.08.01-.12.04-.04.03-.06.09-.06.17v1.57c0,.26.02.47.05.65.04.18.09.33.16.44.07.12.16.21.26.28.1.07.23.12.37.15.11.02.24.04.38.05s.29.02.44.02c.19,0,.37,0,.54-.02s.3-.04.38-.07c.16-.06.3-.12.41-.18.12-.06.21-.15.29-.25.08-.1.15-.23.2-.39.05-.16.09-.35.13-.59,0-.05.04-.08.08-.1s.1-.02.16-.02.11.01.15.04.06.06.05.1c-.04.34-.08.65-.11.94s-.04.59-.04.89c0,.02-.02.06-.05.1s-.11.07-.23.07h-4.36c-.3,0-.6,0-.89.02s-.55.03-.79.05c-.06,0-.11-.02-.14-.05-.03-.04-.05-.08-.06-.13,0-.05,0-.1.04-.14.03-.04.08-.07.16-.08.19-.02.36-.06.49-.1.14-.04.25-.11.34-.19.09-.08.15-.19.2-.32.04-.13.07-.29.07-.49V2.05c0-.18,0-.35-.02-.52-.01-.17-.04-.32-.08-.47s-.1-.27-.19-.37-.2-.18-.34-.22c-.09-.02-.18-.04-.28-.06-.1-.02-.19-.03-.28-.04-.05,0-.08-.02-.11-.06s-.04-.08-.04-.13.01-.09.04-.13.06-.06.11-.06c.27,0,.52,0,.73.02s.47.02.76.02h4.31Z"/>
    <path class="cls-2" d="M6.12,12.05c.06,0,.13,0,.19.02s.08.08.07.19c-.02.23-.03.5-.02.8s.02.58.04.84c0,.03-.02.06-.05.08s-.08.03-.13.04-.09,0-.14-.02c-.04-.02-.07-.05-.08-.09-.06-.31-.11-.56-.17-.73-.06-.18-.13-.31-.23-.4s-.24-.15-.41-.17c-.17-.02-.4-.04-.68-.05h-.72c-.21,0-.37,0-.5.01s-.22.04-.29.09c-.07.05-.12.13-.14.25s-.04.27-.04.47v2.1c0,.11.02.18.06.21.04.03.08.04.12.04.37,0,.66-.02.87-.05.21-.03.37-.09.48-.17.11-.08.18-.19.22-.33.04-.14.07-.31.09-.53,0-.05.03-.08.07-.11.04-.02.08-.04.13-.04s.09.01.13.04.06.06.06.11c0,.13,0,.24-.01.34,0,.1-.02.2-.02.3,0,.1-.02.2-.02.31,0,.11-.01.23-.01.38,0,.24.01.46.04.65.02.2.04.43.04.71,0,.04-.02.07-.06.09-.04.02-.08.03-.13.02-.05,0-.09-.02-.13-.04-.04-.02-.06-.05-.07-.1-.02-.23-.05-.42-.09-.56s-.11-.25-.22-.33c-.11-.08-.27-.13-.48-.16-.21-.03-.5-.04-.87-.04-.04,0-.08.01-.12.04-.04.03-.06.09-.06.17v2.02c0,.27.02.49.07.65s.12.29.23.38c.11.09.25.16.43.19.18.04.4.07.66.09.06,0,.1.02.12.07s.04.09.04.15c0,.05-.01.09-.04.13-.03.04-.07.06-.13.06-.43,0-.8-.02-1.11-.05-.31-.03-.61-.05-.89-.05-.3,0-.6.02-.9.05s-.58.05-.86.05c-.05,0-.08-.02-.11-.06-.02-.04-.04-.08-.04-.13,0-.05,0-.09.03-.14s.06-.07.12-.08c.22-.02.41-.06.55-.1.14-.04.26-.1.34-.19.08-.09.13-.2.16-.35.03-.14.04-.34.04-.58v-4.51c0-.18,0-.35-.02-.52-.01-.17-.04-.32-.08-.47s-.1-.27-.19-.37-.2-.18-.34-.22c-.09-.02-.18-.04-.28-.06-.1-.02-.19-.03-.28-.04-.05,0-.08-.02-.11-.06s-.04-.08-.04-.13.01-.09.04-.13.06-.06.11-.06c.27,0,.52,0,.73.02s.47.02.76.02h4.31Z"/>
    <path class="cls-2" d="M11.08,20.23c-1.26,0-2.24-.36-2.95-1.07-.71-.71-1.07-1.78-1.07-3.19,0-.61.1-1.17.3-1.68.2-.51.48-.95.83-1.32.36-.37.78-.65,1.28-.86.5-.2,1.04-.31,1.64-.31s1.12.1,1.61.29c.49.2.91.47,1.26.83.35.36.63.79.82,1.3.2.51.29,1.07.29,1.7,0,.7-.11,1.31-.32,1.84-.21.53-.5.98-.86,1.34-.36.36-.79.64-1.28.83-.49.19-1.01.28-1.56.28ZM11.12,19.73c.39,0,.74-.1,1.04-.31.3-.21.55-.48.76-.82.21-.34.37-.73.47-1.18.11-.44.16-.91.16-1.39s-.04-.92-.13-1.37c-.08-.45-.22-.85-.41-1.19-.19-.35-.45-.63-.77-.84-.32-.21-.71-.32-1.18-.32-.43,0-.81.11-1.12.32-.32.22-.57.5-.77.85-.2.35-.35.74-.44,1.19-.1.44-.14.89-.14,1.35,0,.48.04.94.12,1.39.08.45.22.84.41,1.18.19.34.45.61.77.82.32.21.73.31,1.23.31Z"/>
    <path class="cls-2" d="M23.64,16.94c0,.52-.06.99-.17,1.4-.12.41-.3.76-.55,1.04-.25.28-.58.5-.99.65-.41.15-.9.23-1.49.23s-1.05-.06-1.46-.17c-.41-.11-.75-.29-1.02-.53s-.47-.56-.59-.95c-.13-.39-.19-.86-.19-1.41v-3.36c0-.25-.01-.46-.04-.64-.03-.18-.08-.32-.16-.43-.08-.11-.19-.2-.34-.26s-.35-.1-.59-.11c-.05,0-.08-.02-.11-.07s-.04-.09-.04-.14.01-.09.04-.13.06-.06.11-.06c.26,0,.55.01.88.04.33.03.64.04.92.04.17,0,.33,0,.47-.01s.29-.02.43-.03c.14-.01.28-.02.43-.03s.3-.01.47-.01c.05,0,.08.02.1.06.02.04.03.08.02.13,0,.05-.02.09-.04.14s-.06.07-.1.07c-.25.02-.45.05-.6.1-.15.05-.27.13-.35.24-.08.11-.13.25-.16.43-.02.18-.04.4-.04.67v3.28c0,.34.04.66.13.96.09.3.22.57.4.8s.41.41.68.55c.27.14.59.2.96.2.78,0,1.37-.21,1.78-.64.41-.43.61-1.11.61-2.03v-2.5c0-.19,0-.38-.01-.57,0-.19-.02-.37-.04-.54-.02-.17-.04-.31-.07-.4-.04-.14-.08-.24-.13-.31-.04-.07-.1-.12-.16-.15-.06-.03-.14-.05-.24-.05-.1,0-.22-.01-.36-.03-.04,0-.07-.02-.09-.07-.02-.04-.03-.09-.03-.14s0-.09.02-.13.05-.06.1-.06c.19,0,.4.01.61.04.22.03.44.04.66.04.21,0,.42-.01.62-.04.21-.03.44-.04.7-.04.05,0,.08.02.11.06.02.04.04.08.04.13s-.01.09-.04.14c-.02.04-.06.07-.11.07-.14.02-.26.03-.34.03s-.15.02-.21.05c-.06.03-.11.08-.15.15-.04.07-.09.17-.15.31-.04.1-.07.23-.09.4s-.03.35-.04.53-.01.38,0,.57c0,.19,0,.36,0,.5v1.99Z"/>
    <path class="cls-2" d="M26.6,13.36c0-.26-.08-.48-.25-.64s-.45-.27-.86-.31c-.04,0-.07-.02-.09-.07s-.03-.09-.03-.14,0-.09.03-.13.05-.06.1-.06h.46c.21,0,.42,0,.64.02.22.01.41.03.59.05.18.02.28.06.31.1l4.84,5.75c.1.1.14.08.14-.06v-3.41c0-.19,0-.38-.01-.57,0-.19-.02-.37-.03-.53s-.03-.3-.07-.4c-.04-.12-.08-.21-.12-.28-.04-.07-.09-.12-.16-.16-.07-.04-.15-.06-.25-.07-.1-.01-.22-.03-.37-.04-.04,0-.07-.02-.09-.07s-.03-.09-.03-.14,0-.09.02-.13.05-.06.1-.06c.19,0,.4.01.62.04s.44.04.67.04c.21,0,.41-.01.62-.04s.43-.04.69-.04c.05,0,.08.02.11.06s.04.08.04.13-.01.09-.04.14-.06.07-.11.07c-.14.02-.26.03-.34.04s-.16.03-.22.06-.11.08-.16.15c-.05.07-.1.17-.16.31-.04.1-.07.23-.1.4s-.04.35-.05.54c-.01.19-.02.38-.02.58v5.7s-.02.04-.07.06c-.04.02-.1.03-.16.03s-.12,0-.17,0c-.06,0-.09-.02-.11-.05l-5.16-6.12c-.06-.07-.11-.11-.14-.1-.03,0-.05.06-.05.16v4.37c0,.29.02.51.07.67s.11.28.2.35c.09.08.21.13.34.16.14.03.3.05.48.08.05,0,.08.03.11.07.02.04.03.08.03.13,0,.05-.02.09-.04.13s-.06.06-.11.06c-.18,0-.37-.01-.58-.04-.21-.03-.46-.04-.75-.04-.3,0-.57.01-.81.04-.24.03-.43.04-.59.04-.04,0-.07-.02-.1-.06s-.04-.08-.04-.13c0-.05,0-.09.03-.13.02-.04.06-.06.11-.07.21-.02.38-.05.52-.08.14-.03.25-.08.34-.16.08-.08.14-.19.18-.35s.05-.38.05-.67v-5.16Z"/>
    <path class="cls-2" d="M36.14,14.06c0-.18,0-.35-.02-.52-.01-.17-.04-.32-.08-.47-.04-.14-.1-.27-.19-.37s-.2-.18-.34-.22c-.09-.02-.18-.04-.28-.06-.1-.02-.19-.03-.28-.04-.05,0-.08-.02-.11-.06s-.04-.08-.04-.13.01-.09.04-.13.06-.06.11-.06c.27,0,.52,0,.73.02.22.02.47.02.76.02.33,0,.65,0,.97-.02.32-.01.64-.02.97-.03.66,0,1.26.1,1.82.31.56.21,1.03.5,1.43.87.4.37.71.82.94,1.33s.34,1.08.34,1.69c0,.67-.11,1.26-.32,1.75-.22.5-.51.91-.89,1.24s-.82.58-1.34.74-1.07.24-1.67.24c-.36,0-.71-.02-1.05-.05s-.65-.05-.92-.05c-.17,0-.32,0-.46,0-.14,0-.27.01-.4.02s-.26.02-.39.04c-.13.02-.28.03-.44.05-.05,0-.09,0-.11-.05-.03-.04-.05-.08-.05-.13,0-.05,0-.1.03-.14.03-.05.07-.08.14-.08.19-.02.36-.06.49-.1s.25-.11.34-.19.15-.18.19-.31.06-.3.06-.5v-4.62ZM37.45,17.86c0,.4.02.72.05.95.04.24.11.41.21.53s.25.2.45.23c.2.04.46.05.79.05.36,0,.69-.08.99-.23.3-.15.56-.37.77-.67.22-.29.38-.65.5-1.07.12-.42.18-.91.18-1.46,0-.58-.06-1.1-.18-1.55-.12-.45-.32-.83-.59-1.14s-.63-.54-1.09-.7c-.45-.16-1.01-.23-1.66-.23-.16,0-.27.03-.34.08-.06.06-.1.16-.1.32v4.87Z"/>
    <path class="cls-2" d="M46.2,17.28c-.11,0-.19.02-.24.05-.05.04-.09.1-.13.19l-.54,1.42c-.04.12-.06.21-.06.28,0,.1.03.19.08.26.05.07.12.12.21.16.09.04.19.07.3.1.11.02.23.04.35.05.06,0,.1.02.12.07.02.04.04.09.04.14s-.01.09-.04.14c-.02.04-.06.07-.12.07-.19,0-.41-.02-.66-.05s-.48-.05-.71-.05c-.21,0-.41.02-.6.05-.19.03-.4.05-.62.05-.04,0-.07-.02-.1-.06-.03-.04-.04-.08-.05-.13,0-.05,0-.09.02-.14s.06-.07.11-.08l.18-.02c.12-.02.23-.05.33-.09.1-.04.19-.09.28-.17.08-.08.17-.19.25-.32.08-.13.16-.3.24-.51l2.71-6.83c.02-.06.09-.1.19-.1.11,0,.2.03.26.1.2.51.41,1.06.64,1.64.23.58.46,1.18.7,1.78.24.6.48,1.2.72,1.8.24.6.47,1.16.68,1.69.1.23.19.41.28.54.09.13.18.22.28.29.09.06.19.11.28.13.1.02.2.05.31.07.05,0,.08.03.1.08s.03.09.03.14,0,.09-.03.13c-.02.04-.05.06-.09.06-.26,0-.5-.02-.74-.05s-.5-.05-.8-.05c-.34,0-.65.02-.95.05s-.58.05-.85.05c-.06,0-.1-.02-.13-.07-.03-.04-.04-.09-.04-.15,0-.05.01-.09.04-.13s.06-.06.12-.07c.27-.03.47-.08.6-.14s.19-.2.19-.4c0-.06,0-.12-.02-.19-.01-.07-.04-.17-.08-.29s-.1-.28-.17-.48c-.07-.2-.17-.45-.29-.75-.04-.1-.09-.17-.16-.2-.07-.03-.18-.04-.33-.04h-2.11ZM48.26,16.81c.11,0,.19-.02.23-.05.04-.04.04-.1,0-.2l-1.04-2.81s-.05-.06-.1-.06-.08.02-.1.06l-1.09,2.81c-.04.1-.04.17-.01.2.03.03.09.05.18.05h1.93Z"/>
    <path class="cls-2" d="M55.72,18.55c0,.26.01.47.04.62s.08.26.16.34c.08.08.2.14.35.17.15.04.36.07.61.09.05,0,.09.03.11.08.03.04.04.09.04.14s-.01.09-.04.13c-.03.04-.07.06-.13.06-.32,0-.63-.02-.92-.05s-.58-.05-.87-.05c-.3,0-.62.02-.94.05-.32.03-.62.05-.88.05-.05,0-.08-.02-.11-.06-.02-.04-.04-.08-.04-.13s.01-.09.04-.14.06-.07.11-.08c.25-.02.45-.05.59-.09.15-.04.26-.09.35-.17.08-.08.14-.19.17-.34.03-.15.04-.35.04-.62v-5.33c0-.3-.07-.48-.22-.56-.15-.08-.4-.11-.75-.11-.3,0-.54.02-.73.07-.19.04-.35.12-.47.24s-.22.27-.3.47c-.08.2-.15.46-.21.78,0,.05-.03.08-.08.1s-.09.02-.13.02c-.04,0-.08-.02-.12-.04-.04-.02-.05-.05-.05-.08.03-.3.05-.6.05-.91,0-.31-.01-.61-.05-.92,0-.09.06-.15.17-.18.11-.03.24-.05.37-.05h6.42c.15,0,.28.01.38.04.1.03.15.09.15.17-.02.1-.03.21-.04.35-.01.14-.02.29-.02.46s0,.34.02.52c.01.18.03.34.04.5,0,.03-.02.06-.06.09s-.08.04-.13.05c-.05,0-.09,0-.14-.02-.04-.02-.07-.05-.08-.1-.05-.32-.11-.58-.19-.79s-.19-.36-.32-.48c-.13-.12-.29-.2-.49-.24-.19-.04-.42-.07-.68-.07-.36,0-.62.04-.78.11-.16.08-.24.26-.24.56v5.33Z"/>
    <path class="cls-2" d="M60.55,13.85c0-.25-.01-.46-.04-.64-.03-.18-.08-.32-.16-.43-.08-.11-.19-.2-.34-.26s-.35-.1-.59-.11c-.05,0-.08-.02-.11-.07s-.04-.09-.04-.14.01-.09.04-.13.06-.06.11-.06c.26,0,.55.01.88.04s.64.04.92.04c.17,0,.33,0,.47-.01.15,0,.29-.02.43-.02.14,0,.28-.02.43-.02s.3-.01.47-.01c.05,0,.08.02.1.06.02.04.03.08.02.13,0,.05-.02.09-.04.14s-.06.07-.1.07c-.25.02-.45.05-.6.1-.15.05-.27.13-.35.24-.08.11-.13.25-.16.43-.02.18-.04.4-.04.67v4.7c0,.26.02.47.05.62.03.15.09.26.17.34.08.08.2.14.35.17.15.04.35.07.59.09.05,0,.09.03.11.08.03.04.04.09.04.14s-.01.09-.04.13c-.03.04-.07.06-.13.06-.32,0-.63-.02-.92-.05-.29-.03-.58-.05-.87-.05-.3,0-.62.02-.94.05-.32.03-.62.05-.88.05-.05,0-.08-.02-.11-.06-.02-.04-.04-.08-.04-.13s.01-.09.04-.14.06-.07.11-.08c.25-.02.45-.05.59-.09.15-.04.26-.09.35-.17.08-.08.14-.19.17-.34.03-.15.04-.35.04-.62v-4.7Z"/>
    <path class="cls-2" d="M67.98,20.23c-1.26,0-2.24-.36-2.95-1.07-.71-.71-1.07-1.78-1.07-3.19,0-.61.1-1.17.3-1.68.2-.51.48-.95.83-1.32.36-.37.78-.65,1.28-.86.5-.2,1.04-.31,1.64-.31s1.12.1,1.61.29c.49.2.91.47,1.26.83.35.36.63.79.82,1.3.2.51.29,1.07.29,1.7,0,.7-.11,1.31-.32,1.84-.21.53-.5.98-.86,1.34-.36.36-.79.64-1.28.83-.49.19-1.01.28-1.56.28ZM68.03,19.73c.39,0,.74-.1,1.04-.31.3-.21.55-.48.76-.82.21-.34.37-.73.47-1.18.11-.44.16-.91.16-1.39s-.04-.92-.13-1.37c-.08-.45-.22-.85-.41-1.19-.19-.35-.45-.63-.77-.84-.32-.21-.71-.32-1.18-.32-.43,0-.81.11-1.12.32-.32.22-.57.5-.77.85-.2.35-.35.74-.44,1.19-.1.44-.14.89-.14,1.35,0,.48.04.94.12,1.39.08.45.22.84.41,1.18.19.34.45.61.77.82.32.21.73.31,1.23.31Z"/>
    <path class="cls-2" d="M74.02,13.36c0-.26-.08-.48-.25-.64s-.45-.27-.86-.31c-.04,0-.07-.02-.09-.07s-.03-.09-.03-.14,0-.09.03-.13.05-.06.1-.06h.46c.21,0,.42,0,.64.02.22.01.41.03.59.05.18.02.28.06.31.1l4.84,5.75c.1.1.14.08.14-.06v-3.41c0-.19,0-.38-.01-.57,0-.19-.02-.37-.03-.53s-.03-.3-.07-.4c-.04-.12-.08-.21-.12-.28-.04-.07-.09-.12-.16-.16-.07-.04-.15-.06-.25-.07-.1-.01-.22-.03-.37-.04-.04,0-.07-.02-.09-.07s-.03-.09-.03-.14,0-.09.02-.13.05-.06.1-.06c.19,0,.4.01.62.04s.44.04.67.04c.21,0,.41-.01.62-.04s.43-.04.69-.04c.05,0,.08.02.11.06s.04.08.04.13-.01.09-.04.14-.06.07-.11.07c-.14.02-.26.03-.34.04s-.16.03-.22.06-.11.08-.16.15c-.05.07-.1.17-.16.31-.04.1-.07.23-.1.4s-.04.35-.05.54c-.01.19-.02.38-.02.58v5.7s-.02.04-.07.06c-.04.02-.1.03-.16.03s-.12,0-.17,0c-.06,0-.09-.02-.11-.05l-5.16-6.12c-.06-.07-.11-.11-.14-.1-.03,0-.05.06-.05.16v4.37c0,.29.02.51.07.67s.11.28.2.35c.09.08.21.13.34.16.14.03.3.05.48.08.05,0,.08.03.11.07.02.04.03.08.03.13,0,.05-.02.09-.04.13s-.06.06-.11.06c-.18,0-.37-.01-.58-.04-.21-.03-.46-.04-.75-.04-.3,0-.57.01-.81.04-.24.03-.43.04-.59.04-.04,0-.07-.02-.1-.06s-.04-.08-.04-.13c0-.05,0-.09.03-.13.02-.04.06-.06.11-.07.21-.02.38-.05.52-.08.14-.03.25-.08.34-.16.08-.08.14-.19.18-.35s.05-.38.05-.67v-5.16Z"/>
  </g>
  <g>
    <path class="cls-3" d="M1.89,29c-.07,0-.13.01-.16.04-.03.02-.06.07-.09.12l-.36.94c-.03.08-.04.14-.04.18,0,.07.02.13.05.17.03.05.08.08.14.11.06.03.13.05.2.06.07.02.15.03.23.03.04,0,.06.01.08.04.02.03.02.06.02.09s0,.06-.02.09c-.02.03-.04.04-.08.04-.13,0-.27-.01-.44-.03-.17-.02-.32-.03-.47-.03-.14,0-.27.01-.4.03-.13.02-.27.03-.42.03-.03,0-.05-.01-.07-.04-.02-.03-.03-.06-.03-.09,0-.03,0-.06.02-.09.01-.03.04-.05.08-.05l.12-.02c.08-.02.15-.04.22-.06.07-.02.13-.06.18-.12.06-.05.11-.12.16-.21.05-.09.11-.2.16-.34l1.81-4.55s.06-.06.13-.06c.07,0,.13.02.18.06.13.34.28.71.43,1.1.15.39.31.79.47,1.19.16.4.32.8.48,1.2.16.4.31.77.46,1.12.06.15.13.27.19.36.06.08.12.15.18.19.06.04.12.07.19.09s.13.03.21.05c.03,0,.05.02.07.05.01.03.02.06.02.09s0,.06-.02.09c-.01.03-.03.04-.06.04-.17,0-.33-.01-.49-.03-.16-.02-.33-.03-.53-.03-.22,0-.44.01-.63.03-.2.02-.39.03-.57.03-.04,0-.07-.01-.08-.04s-.03-.06-.03-.1c0-.03,0-.06.02-.08.02-.02.04-.04.08-.04.18-.02.31-.05.4-.1.08-.04.13-.13.13-.26,0-.04,0-.08-.01-.13,0-.05-.03-.11-.05-.2-.03-.08-.06-.19-.11-.32-.05-.13-.11-.3-.19-.5-.03-.07-.06-.11-.11-.13s-.12-.03-.22-.03h-1.41ZM3.27,28.68c.07,0,.13-.01.15-.04.03-.02.03-.07,0-.13l-.7-1.87s-.03-.04-.06-.04-.05.01-.06.04l-.73,1.87c-.03.07-.03.11,0,.14.02.02.06.03.12.03h1.29Z"/>
    <path class="cls-3" d="M9.52,26.85c0-.12,0-.23-.01-.34,0-.11-.03-.22-.05-.31s-.07-.18-.12-.25c-.06-.07-.13-.12-.23-.14-.06-.02-.12-.03-.18-.04s-.12-.02-.18-.02c-.03,0-.06-.01-.07-.04-.02-.03-.02-.06-.02-.09s0-.06.02-.09.04-.04.07-.04c.18,0,.34,0,.49.02s.31.02.5.02c.32,0,.59-.01.8-.02.21,0,.41-.01.6-.01.21,0,.42.03.63.08.21.05.39.13.56.24.16.11.29.26.39.44.1.18.15.4.15.66,0,.2-.03.38-.09.53-.06.15-.15.28-.25.38-.11.11-.23.19-.38.26-.15.07-.31.12-.48.16-.04.01-.06.03-.06.06,0,.02.02.04.06.06.25.12.44.26.58.41.14.15.24.3.31.46.07.16.12.32.16.49.03.17.07.33.1.49.03.12.07.21.13.27.06.06.12.08.19.08s.13-.03.18-.08c.06-.05.1-.13.14-.24.01-.04.03-.07.06-.08.03-.01.06-.02.09,0,.03,0,.06.02.08.05s.03.05.03.08c-.02.13-.05.25-.11.34s-.13.17-.21.24c-.08.06-.18.11-.28.14s-.21.04-.31.04c-.17,0-.33-.04-.46-.11-.14-.07-.23-.18-.28-.32-.03-.09-.06-.19-.09-.3-.03-.11-.06-.21-.08-.32-.03-.11-.05-.22-.08-.32-.03-.1-.05-.2-.07-.28-.1-.34-.22-.59-.37-.74-.15-.15-.36-.22-.64-.22-.09,0-.17.02-.23.06-.06.04-.1.11-.1.22v1.08c0,.18.02.33.06.44.04.11.09.19.17.26.07.06.17.11.28.13.11.03.24.04.38.06.03,0,.06.01.08.04.02.03.03.06.03.1,0,.03,0,.06-.03.09-.02.03-.05.04-.08.04-.27,0-.5-.01-.7-.03-.2-.02-.4-.03-.59-.03-.2,0-.4.01-.6.03-.2.02-.39.03-.58.03-.03,0-.06-.01-.07-.04-.02-.03-.03-.06-.03-.09,0-.03,0-.06.02-.09.02-.03.04-.05.08-.05.15-.02.27-.04.37-.06.1-.03.17-.07.22-.13.05-.06.09-.14.11-.23.02-.1.03-.22.03-.38v-3ZM10.4,27.8c0,.14.04.22.12.24.08.02.19.04.35.04.21,0,.38-.02.52-.06.14-.04.25-.11.34-.2.08-.09.15-.21.18-.36s.05-.33.05-.54-.02-.37-.06-.52c-.04-.14-.1-.26-.18-.34-.08-.09-.19-.15-.32-.19-.13-.04-.3-.06-.49-.06-.21,0-.35.03-.41.08-.07.05-.1.16-.1.33v1.58Z"/>
    <path class="cls-3" d="M18.78,29.84c0,.18,0,.31.02.41.02.1.05.17.11.23.06.05.13.09.24.12.1.02.24.04.41.06.03,0,.06.02.08.05s.03.06.03.09,0,.06-.03.09c-.02.03-.05.04-.08.04-.21,0-.42-.01-.61-.03-.19-.02-.39-.03-.58-.03-.2,0-.41.01-.63.03-.22.02-.41.03-.59.03-.03,0-.06-.01-.07-.04-.02-.03-.02-.06-.02-.09s0-.06.02-.09.04-.05.07-.05c.17-.02.3-.04.4-.06.1-.02.18-.06.23-.12.06-.05.09-.13.11-.23s.03-.24.03-.41v-3.55c0-.2-.05-.32-.15-.37s-.27-.08-.5-.08c-.2,0-.36.01-.49.04s-.23.08-.32.16c-.08.08-.15.18-.2.32s-.1.31-.14.52c0,.03-.02.05-.05.06s-.06.01-.09.01c-.03,0-.06-.01-.08-.03-.02-.02-.04-.03-.04-.06.02-.2.03-.4.04-.6,0-.21,0-.41-.04-.61,0-.06.04-.1.11-.12.07-.02.16-.03.25-.03h4.28c.1,0,.19,0,.25.03.07.02.1.06.1.12-.01.06-.02.14-.03.24,0,.09-.01.2-.01.31s0,.23.01.34c0,.12.02.23.03.34,0,.02-.01.04-.04.06-.03.02-.06.03-.09.03-.03,0-.06,0-.09-.01-.03-.01-.05-.03-.05-.06-.03-.21-.07-.39-.13-.52-.05-.14-.12-.24-.21-.32-.09-.08-.2-.13-.32-.16s-.28-.04-.46-.04c-.24,0-.41.03-.52.08-.11.05-.16.17-.16.37v3.55Z"/>
    <path class="cls-3" d="M33.44,30.24s-.01.07-.04.08c-.14.1-.27.19-.4.28-.13.08-.27.15-.44.21-.16.06-.35.1-.57.13-.22.03-.48.04-.78.04-.44,0-.83-.06-1.16-.19-.34-.13-.62-.31-.85-.54-.23-.24-.4-.53-.52-.88-.12-.35-.18-.74-.18-1.18s.07-.86.21-1.21c.14-.35.34-.65.59-.89.25-.24.55-.42.89-.55.34-.12.72-.19,1.12-.19.26,0,.5.03.73.1s.45.15.64.25c.11.05.21.09.28.1s.13-.04.17-.14c0-.03.02-.05.05-.06.03-.01.06-.01.09-.01.03,0,.05.01.08.02.02.01.03.03.02.05-.05.2-.07.43-.05.68s.03.51.06.77c0,.03-.01.05-.04.07-.03.02-.06.03-.09.04-.03,0-.06,0-.1-.01-.03-.01-.05-.04-.06-.07-.08-.46-.27-.82-.6-1.07s-.73-.37-1.24-.37c-.31,0-.57.07-.8.21-.22.14-.4.32-.54.55-.14.22-.25.48-.31.76-.07.28-.1.56-.1.84,0,.39.04.74.12,1.06.08.32.19.59.34.82.15.23.34.4.56.52s.47.18.76.18c.21,0,.4-.01.57-.04.17-.03.32-.08.44-.16s.21-.18.28-.31c.07-.13.1-.3.1-.5,0-.16-.01-.29-.03-.38-.02-.09-.06-.16-.12-.21s-.14-.08-.24-.1c-.1-.02-.23-.04-.39-.05-.04,0-.06-.01-.08-.04-.02-.03-.02-.05-.02-.08,0-.03,0-.06.02-.08.01-.02.04-.04.07-.04.19,0,.38,0,.58.02.2.01.38.02.53.02.07,0,.15,0,.21,0,.07,0,.14,0,.21-.01.07,0,.15,0,.23-.01.08,0,.18,0,.28,0,.03,0,.05.01.06.04s.02.05.02.08c0,.03,0,.05-.02.08s-.04.04-.07.04c-.12.01-.21.03-.27.06-.06.03-.11.06-.14.11-.03.05-.05.11-.05.18,0,.07,0,.16,0,.26v.74Z"/>
    <path class="cls-3" d="M38.48,29c-.07,0-.13.01-.16.04-.03.02-.06.07-.09.12l-.36.94c-.03.08-.04.14-.04.18,0,.07.02.13.05.17.03.05.08.08.14.11.06.03.13.05.2.06.07.02.15.03.23.03.04,0,.06.01.08.04.02.03.02.06.02.09s0,.06-.02.09c-.02.03-.04.04-.08.04-.13,0-.27-.01-.44-.03-.17-.02-.32-.03-.47-.03-.14,0-.27.01-.4.03-.13.02-.27.03-.42.03-.03,0-.05-.01-.07-.04-.02-.03-.03-.06-.03-.09,0-.03,0-.06.02-.09.01-.03.04-.05.08-.05l.12-.02c.08-.02.15-.04.22-.06.07-.02.13-.06.18-.12.06-.05.11-.12.16-.21.05-.09.11-.2.16-.34l1.81-4.55s.06-.06.13-.06c.07,0,.13.02.18.06.13.34.28.71.43,1.1.15.39.31.79.47,1.19.16.4.32.8.48,1.2.16.4.31.77.46,1.12.06.15.13.27.19.36.06.08.12.15.18.19.06.04.12.07.19.09s.13.03.21.05c.03,0,.05.02.07.05.01.03.02.06.02.09s0,.06-.02.09c-.01.03-.03.04-.06.04-.17,0-.33-.01-.49-.03-.16-.02-.33-.03-.53-.03-.22,0-.44.01-.63.03-.2.02-.39.03-.57.03-.04,0-.07-.01-.08-.04s-.03-.06-.03-.1c0-.03,0-.06.02-.08.02-.02.04-.04.08-.04.18-.02.31-.05.4-.1.08-.04.13-.13.13-.26,0-.04,0-.08-.01-.13,0-.05-.03-.11-.05-.2-.03-.08-.06-.19-.11-.32-.05-.13-.11-.3-.19-.5-.03-.07-.06-.11-.11-.13s-.12-.03-.22-.03h-1.41ZM39.85,28.68c.07,0,.13-.01.15-.04.03-.02.03-.07,0-.13l-.7-1.87s-.03-.04-.06-.04-.05.01-.06.04l-.73,1.87c-.03.07-.03.11,0,.14.02.02.06.03.12.03h1.29Z"/>
    <path class="cls-3" d="M46.1,26.71c0-.17,0-.31-.03-.42-.02-.12-.05-.21-.11-.29-.05-.07-.13-.13-.23-.17s-.23-.07-.4-.08c-.03,0-.06-.01-.07-.04-.02-.03-.02-.06-.02-.09s0-.06.02-.09.04-.04.07-.04c.17,0,.37,0,.58.02s.42.02.62.02c.11,0,.22,0,.32,0s.19-.01.29-.02.19-.01.28-.02c.1,0,.2,0,.31,0,.03,0,.05.01.07.04.01.03.02.06.02.09,0,.03-.01.06-.03.09-.02.03-.04.04-.06.04-.17.01-.3.03-.4.07-.1.03-.18.09-.23.16-.05.07-.09.17-.1.28s-.02.27-.02.45v2.78c0,.17,0,.31.02.43s.05.21.09.29c.04.08.1.14.18.18.07.04.17.08.28.11.07.02.16.03.25.04.09,0,.19.01.29.01.13,0,.25,0,.36-.02.11-.01.2-.03.26-.05.11-.04.2-.08.28-.12.08-.04.14-.1.2-.17s.1-.16.13-.26c.03-.1.06-.24.08-.4,0-.03.02-.05.06-.06.03-.01.07-.02.1-.02s.07,0,.1.02.04.04.04.06c-.03.22-.05.43-.07.63-.02.19-.03.39-.02.6,0,.02-.01.04-.03.07-.02.03-.07.04-.15.04h-2.9c-.21,0-.41,0-.6.02s-.38.03-.57.04c-.04,0-.07-.01-.08-.04-.02-.03-.03-.06-.03-.09s0-.06.03-.09.05-.05.08-.05c.17-.02.3-.04.4-.07.1-.02.18-.06.23-.11s.09-.13.11-.22c.02-.1.03-.24.03-.41v-3.14h0Z"/>
    <path class="cls-3" d="M53.54,26.71c0-.17,0-.31-.03-.42-.02-.12-.05-.21-.11-.29-.05-.07-.13-.13-.23-.17s-.23-.07-.4-.08c-.03,0-.06-.01-.07-.04-.02-.03-.02-.06-.02-.09s0-.06.02-.09.04-.04.07-.04c.17,0,.37,0,.58.02s.42.02.62.02c.11,0,.22,0,.32,0s.19-.01.29-.02.19-.01.28-.02c.1,0,.2,0,.31,0,.03,0,.05.01.07.04.01.03.02.06.02.09,0,.03-.01.06-.03.09-.02.03-.04.04-.06.04-.17.01-.3.03-.4.07-.1.03-.18.09-.23.16-.05.07-.09.17-.1.28s-.02.27-.02.45v2.78c0,.17,0,.31.02.43s.05.21.09.29c.04.08.1.14.18.18.07.04.17.08.28.11.07.02.16.03.25.04.09,0,.19.01.29.01.13,0,.25,0,.36-.02.11-.01.2-.03.26-.05.11-.04.2-.08.28-.12.08-.04.14-.1.2-.17s.1-.16.13-.26c.03-.1.06-.24.08-.4,0-.03.02-.05.06-.06.03-.01.07-.02.1-.02s.07,0,.1.02.04.04.04.06c-.03.22-.05.43-.07.63-.02.19-.03.39-.02.6,0,.02-.01.04-.03.07-.02.03-.07.04-.15.04h-2.9c-.21,0-.41,0-.6.02s-.38.03-.57.04c-.04,0-.07-.01-.08-.04-.02-.03-.03-.06-.03-.09s0-.06.03-.09.05-.05.08-.05c.17-.02.3-.04.4-.07.1-.02.18-.06.23-.11s.09-.13.11-.22c.02-.1.03-.24.03-.41v-3.14h0Z"/>
    <path class="cls-3" d="M64.07,25.51s.08,0,.12.02.05.05.04.13c-.01.06-.02.13-.02.2v.22c0,.24,0,.46.02.67,0,.02-.01.04-.04.05s-.05.02-.08.02c-.03,0-.06,0-.09-.01s-.05-.03-.05-.06c-.04-.21-.07-.37-.11-.49-.04-.12-.09-.21-.16-.27-.07-.06-.16-.1-.27-.12-.11-.02-.27-.03-.45-.03h-.48c-.14,0-.25,0-.33,0-.08,0-.15.03-.2.06-.05.04-.08.09-.1.16s-.02.18-.02.31v1.4c0,.07.01.12.04.14.03.02.05.03.08.03.25,0,.44-.01.58-.03.14-.02.25-.06.32-.12.07-.06.12-.13.14-.22s.04-.21.06-.35c0-.03.02-.06.05-.07.03-.02.06-.02.09-.02s.06,0,.09.02c.03.02.04.04.04.07,0,.09,0,.16,0,.23s-.01.13-.02.2c0,.07-.01.14-.02.21,0,.07,0,.16,0,.25,0,.16,0,.31.02.44.02.13.02.29.02.48,0,.03-.01.05-.04.06-.03.01-.06.02-.09.02-.03,0-.06-.01-.09-.02s-.04-.04-.05-.07c-.02-.15-.04-.28-.06-.38-.02-.1-.07-.17-.14-.22s-.18-.09-.32-.1c-.14-.02-.33-.03-.58-.03-.03,0-.05,0-.08.03s-.04.06-.04.12v1.05c0,.17.01.32.04.44.02.12.06.22.11.3s.11.14.18.18.15.08.25.1c.07.02.16.03.25.04.09,0,.19.01.29.01.13,0,.25,0,.36-.02.11-.01.2-.03.26-.05.11-.04.2-.08.28-.12.08-.04.14-.1.2-.17.05-.07.1-.16.13-.26.03-.1.06-.24.08-.4,0-.03.02-.05.06-.06.03-.01.07-.02.1-.02s.07,0,.1.02c.03.02.04.04.04.06-.03.22-.05.43-.07.63-.02.19-.03.39-.02.6,0,.02-.01.04-.03.07s-.07.04-.15.04h-2.9c-.2,0-.4,0-.6.02-.19.01-.37.02-.52.03-.04,0-.07-.01-.1-.04-.02-.02-.03-.05-.04-.09,0-.03,0-.07.02-.1.02-.03.06-.05.1-.05.13-.02.24-.04.33-.07s.17-.07.22-.13c.06-.06.1-.13.13-.21s.04-.19.04-.33v-3.08c0-.12,0-.23-.01-.34,0-.11-.03-.22-.05-.31-.03-.1-.07-.18-.12-.25-.06-.07-.13-.12-.23-.14-.06-.02-.12-.03-.18-.04s-.12-.02-.18-.02c-.03,0-.06-.01-.07-.04s-.02-.06-.02-.09,0-.06.02-.09c.02-.03.04-.04.07-.04.18,0,.34,0,.49.02s.31.02.5.02h2.87Z"/>
    <path class="cls-3" d="M68.36,26.85c0-.12,0-.23-.01-.34,0-.11-.03-.22-.05-.31s-.07-.18-.12-.25c-.06-.07-.13-.12-.23-.14-.06-.02-.12-.03-.18-.04s-.12-.02-.18-.02c-.03,0-.06-.01-.07-.04-.02-.03-.02-.06-.02-.09s0-.06.02-.09.04-.04.07-.04c.18,0,.34,0,.49.02s.31.02.5.02c.32,0,.59-.01.8-.02.21,0,.41-.01.6-.01.21,0,.42.03.63.08.21.05.39.13.56.24.16.11.29.26.39.44.1.18.15.4.15.66,0,.2-.03.38-.09.53-.06.15-.15.28-.25.38-.11.11-.23.19-.38.26-.15.07-.31.12-.48.16-.04.01-.06.03-.06.06,0,.02.02.04.06.06.25.12.44.26.58.41.14.15.24.3.31.46.07.16.12.32.16.49.03.17.07.33.1.49.03.12.07.21.13.27.06.06.12.08.19.08s.13-.03.18-.08c.06-.05.1-.13.14-.24.01-.04.03-.07.06-.08.03-.01.06-.02.09,0,.03,0,.06.02.08.05s.03.05.03.08c-.02.13-.05.25-.11.34s-.13.17-.21.24c-.08.06-.18.11-.28.14s-.21.04-.31.04c-.17,0-.33-.04-.46-.11-.14-.07-.23-.18-.28-.32-.03-.09-.06-.19-.09-.3-.03-.11-.06-.21-.08-.32-.03-.11-.05-.22-.08-.32-.03-.1-.05-.2-.07-.28-.1-.34-.22-.59-.37-.74-.15-.15-.36-.22-.64-.22-.09,0-.17.02-.23.06-.06.04-.1.11-.1.22v1.08c0,.18.02.33.06.44.04.11.09.19.17.26.07.06.17.11.28.13.11.03.24.04.38.06.03,0,.06.01.08.04.02.03.03.06.03.1,0,.03,0,.06-.03.09-.02.03-.05.04-.08.04-.27,0-.5-.01-.7-.03-.2-.02-.4-.03-.59-.03-.2,0-.4.01-.6.03-.2.02-.39.03-.58.03-.03,0-.06-.01-.07-.04-.02-.03-.03-.06-.03-.09,0-.03,0-.06.02-.09.02-.03.04-.05.08-.05.15-.02.27-.04.37-.06.1-.03.17-.07.22-.13.05-.06.09-.14.11-.23.02-.1.03-.22.03-.38v-3ZM69.23,27.8c0,.14.04.22.12.24.08.02.19.04.35.04.21,0,.38-.02.52-.06.14-.04.25-.11.34-.2.08-.09.15-.21.18-.36s.05-.33.05-.54-.02-.37-.06-.52c-.04-.14-.1-.26-.18-.34-.08-.09-.19-.15-.32-.19-.13-.04-.3-.06-.49-.06-.21,0-.35.03-.41.08-.07.05-.1.16-.1.33v1.58Z"/>
    <path class="cls-3" d="M78.28,29.85c0,.18.01.31.03.41s.06.17.12.23c.06.05.13.09.24.12.1.02.23.04.39.06.03,0,.06.02.08.05s.03.06.03.09,0,.06-.03.09c-.02.03-.05.04-.08.04-.21,0-.42-.01-.61-.04s-.39-.04-.58-.04c-.2,0-.41.01-.63.04s-.41.04-.59.04c-.03,0-.06-.01-.07-.04-.02-.03-.02-.06-.02-.09s0-.06.02-.09c.02-.03.04-.05.07-.05.17-.02.3-.04.4-.06s.18-.06.23-.12.09-.13.11-.23.03-.24.03-.41v-1.05l-.69-1.34s-.07-.13-.15-.27c-.08-.14-.17-.29-.26-.45-.1-.16-.2-.32-.3-.47-.1-.15-.18-.26-.25-.33-.07-.07-.15-.12-.24-.14s-.21-.03-.35-.06c-.03,0-.05-.02-.06-.05-.02-.03-.02-.06-.02-.09s0-.06.02-.09.04-.04.06-.04c.21,0,.41,0,.6.02.19.02.37.02.55.02.2,0,.4,0,.59-.02s.39-.02.58-.02c.04,0,.06.01.08.04.02.03.02.06.02.09s0,.06-.03.09c-.02.03-.04.04-.08.05-.2.02-.35.06-.43.1-.08.05-.12.12-.12.21,0,.1.05.25.15.44l.95,1.82s.03.05.06.06c.02.01.05,0,.08-.06.15-.24.29-.48.42-.71.13-.23.25-.45.34-.64s.18-.37.23-.52c.06-.15.08-.26.08-.33,0-.08-.01-.14-.04-.19-.02-.05-.06-.08-.11-.1-.05-.02-.1-.04-.17-.05-.07,0-.14-.02-.22-.03-.03,0-.06-.02-.07-.05-.01-.03-.02-.06-.02-.09s0-.06.02-.09c.02-.03.04-.04.06-.04.2,0,.37,0,.52.02.15.02.29.02.44.02.12,0,.25,0,.38-.02.13-.02.27-.02.43-.02.03,0,.05.01.07.04.01.03.02.06.02.09,0,.03-.01.06-.03.09-.02.03-.04.04-.06.04-.2.02-.38.11-.55.29-.11.11-.2.23-.28.36-.08.13-.15.25-.21.35l-1.15,1.98v1.13Z"/>
  </g>
  <rect class="cls-1" x="536.63" y="177.96" width="6.62" height=".74"/>
</svg>