<svg  viewBox="0 0 552 48" fill="none" xmlns="http://www.w3.org/2000/svg">
<path d="M3.15315 20.4437C5.92047 19.1106 8.85146 21.013 9.63256 23.0812C10.5996 25.6537 9.63256 28.6875 7.02889 29.6747C4.73023 30.5466 1.70253 29.617 0.512286 27.4696C-0.677962 25.3222 0.207285 21.8705 3.15315 20.4437Z" fill="currentColor"/>
<path d="M545.153 20.4437C547.92 19.1106 550.851 21.013 551.633 23.0812C552.6 25.6537 551.633 28.6875 549.029 29.6747C546.73 30.5466 543.703 29.617 542.512 27.4696C541.322 25.3222 542.207 21.8705 545.153 20.4437Z" fill="currentColor"/>
<path d="M370.664 22.7844C370.664 33.1346 376.777 44.9436 387.683 44.9436C397.963 44.9436 403.66 34.385 403.66 24.1737C403.66 13.8234 397.755 3.05644 386.71 3.05644C376.36 3.05644 370.664 12.712 370.664 22.7844ZM362.328 24.6599C362.328 12.2952 371.22 0 388.099 0C403.521 0 412.065 10.3502 412.065 22.3676C412.065 35.2185 402.27 48 386.154 48C371.081 48 362.328 36.8857 362.328 24.6599Z" fill="currentColor"/>
<path d="M424.101 22.7844C424.101 33.1346 430.214 44.9436 441.12 44.9436C451.401 44.9436 457.097 34.385 457.097 24.1737C457.097 13.8234 451.193 3.05644 440.148 3.05644C429.797 3.05644 424.101 12.712 424.101 22.7844ZM415.766 24.6599C415.766 12.2952 424.657 0 441.537 0C456.958 0 465.502 10.3502 465.502 22.3676C465.502 35.2185 455.708 48 439.592 48C424.518 48 415.766 36.8857 415.766 24.6599Z" fill="currentColor"/>
<path d="M126.689 46.8221V45.7935C126.689 45.1122 127.197 44.5511 127.865 44.4042C130.39 43.8164 132.046 42.3199 132.046 40.1558V7.22698C132.046 4.14116 131.752 3.31292 127.625 2.37782C127.01 2.24424 126.556 1.69654 126.556 1.05533V0.28053H155.865C158.71 0.28053 161.008 0 161.008 0L159.057 10.7804C158.937 11.4216 158.389 11.8758 157.748 11.8758H156.359C156.706 4.71557 154.409 3.40643 148.851 3.40643H140.85C140.502 3.40643 140.168 3.54002 139.928 3.79383C139.687 4.03429 139.541 4.36825 139.541 4.71557V21.2802C139.541 21.4271 139.661 21.5474 139.808 21.5474H151.911L152.334 18.4993C152.416 17.9142 152.872 17.452 153.456 17.3628L155.183 17.099V28.053H152.044C151.897 28.053 151.777 27.9328 151.777 27.7858V24.6065H139.821C139.674 24.6065 139.554 24.7267 139.554 24.8737V39.6081C139.554 40.4497 139.5 41.2513 139.434 41.8925C139.354 42.7207 139.995 43.4955 140.823 43.4955H149.626C155.384 43.4955 156.372 42.4669 159.538 35.8544C159.765 35.3868 160.233 35.093 160.741 35.093H162.397L159.949 46.0985C159.881 46.404 159.61 46.6214 159.297 46.6214H138.098C134.064 46.6214 126.195 46.8351 126.195 46.8351L126.689 46.8221Z" fill="currentColor"/>
<path d="M524.247 0.56226C524.425 0.917545 524.166 1.35427 523.774 1.41282C522.263 1.63801 519.29 2.52393 519.29 6.01136L520.652 40.3588C520.657 40.521 520.661 40.679 520.662 40.8323C520.679 42.4583 521.897 43.9816 523.52 44.0715L526.531 44.2385C527.309 44.2815 527.885 44.9776 527.782 45.7492L527.695 46.9554C527.695 46.9554 520.161 46.7407 516.618 46.755C513.075 46.7693 507.548 46.9559 507.548 46.9559L507.533 46.9689V45.7935C507.533 45.1125 508.041 44.565 508.709 44.3911C510.993 43.79 512.33 42.2528 512.33 40.0887V40.0757H512.351L511.943 9.03008L495.192 46.0623C494.954 46.588 494.206 46.5857 493.973 46.0584L477.585 9.03008L476.78 40.3588V41.4846C476.78 42.8565 477.819 44.0058 479.184 44.1433L483.853 44.6129C484.604 44.6886 485.142 45.3706 485.043 46.1184L484.948 46.8346C484.948 46.8346 477.147 46.7262 474.539 46.755C471.93 46.7837 467.859 46.9554 467.859 46.9554V45.65C467.859 44.9706 468.374 44.4122 469.035 44.2542C471.376 43.6942 472.741 42.311 472.861 40.1501L474.25 7.22458C474.379 4.12539 473.188 2.6596 468.891 1.57589C468.293 1.42477 467.859 0.895107 467.859 0.277869H474.111C480.285 0.277869 481.604 0.000754524 481.608 0L481.886 0.277869C485.217 10.6613 496.492 35.5132 496.548 35.635L508.983 5.13992C509.35 4.17605 509.898 2.36361 510.228 1.24454C510.397 0.672509 510.922 0.277869 511.519 0.277869H513.011C518.846 0.277869 523.965 0 523.965 0L524.247 0.56226Z" fill="currentColor"/>
<path fill-rule="evenodd" clip-rule="evenodd" d="M198.914 0.244257C199.558 0.102764 200.209 0.4511 200.447 1.06482L215.384 39.5242C216.334 42.029 216.99 43.3046 217.918 43.9949C218.967 44.7751 220.04 45.6472 220.04 46.9543C220.04 46.9543 215.55 46.7536 212.693 46.7539C209.836 46.7543 205.381 46.9543 205.381 46.9543C205.381 45.726 205.858 44.7697 206.682 44.518C207.966 44.1253 209.052 43.8993 208.23 41.8163L204.734 32.4731C204.539 31.9513 204.04 31.6044 203.483 31.6043H188.641C188.189 31.6043 187.783 31.8845 187.622 32.3074L184.399 40.8013C183.794 42.3941 184.814 44.1382 186.499 44.3914L187.335 44.518C188.474 44.689 189.316 45.8032 189.316 46.9543C189.316 46.9543 184.573 46.7466 181.968 46.7539C179.364 46.7613 175.302 46.9549 175.302 46.9549L175.289 46.9679V45.7925C175.289 45.1113 175.797 44.5638 176.464 44.3901C177.961 44.0822 179.095 43.9798 179.965 42.0784C180.057 41.8767 180.157 41.6767 180.236 41.4693L196.034 2.07323C196.363 1.25317 197.077 0.649372 197.94 0.459507L198.914 0.244257ZM196.65 10.0845C196.574 9.83818 196.223 9.823 196.131 10.0636L189.266 27.9776C189.199 28.1524 189.328 28.3402 189.515 28.3403H202.845C203.031 28.3402 203.16 28.1546 203.095 27.9802L197.949 14.0307C197.554 12.8463 197.022 11.2951 196.65 10.0845Z" fill="currentColor"/>
<path d="M72.2823 12.1297C72.2822 12.3567 72.0277 12.4765 71.8674 12.3162C69.0358 9.45742 69.8502 3.54065 60.6601 3.54054H54.9161C54.1814 3.54054 53.5803 4.14168 53.5803 4.8764V40.0757L53.5816 40.0887C53.5816 42.2527 54.9176 43.7899 57.2017 44.3911C57.8696 44.5648 58.3784 45.1122 58.3784 45.7935V46.9689L58.3641 46.9559C58.3641 46.9559 53.164 46.5947 49.8271 46.5947C46.4902 46.5947 41.2901 46.9559 41.2901 46.9559L41.2771 45.7935C41.2771 45.1122 41.7846 44.5648 42.4525 44.3911C44.7367 43.79 46.0726 42.2528 46.0726 40.0887V4.88944C46.0726 4.15484 45.4713 3.55379 44.7368 3.55359H39.6073C32.8612 3.55359 32.3797 12.0227 29.6679 12.0227H29L29.8153 0C29.8477 0.0076173 31.644 0.42784 34.4765 0.427892H67.7529C70.5983 0.427892 72.2823 0 72.2823 0V12.1297Z" fill="currentColor"/>
<path d="M309.415 12.1297C309.415 12.3567 309.161 12.4765 309 12.3162C306.169 9.45742 306.983 3.54065 297.793 3.54054H292.049C291.314 3.54054 290.713 4.14168 290.713 4.8764V40.0757L290.714 40.0887C290.714 42.2527 292.05 43.7899 294.335 44.3911C295.002 44.5648 295.511 45.1122 295.511 45.7935V46.9689L295.497 46.9559C295.497 46.9559 290.297 46.5947 286.96 46.5947C283.623 46.5947 278.423 46.9559 278.423 46.9559L278.41 45.7935C278.41 45.1122 278.917 44.5648 279.585 44.3911C281.869 43.79 283.205 42.2528 283.205 40.0887V4.88944C283.205 4.15484 282.604 3.55379 281.87 3.55359H276.74C269.994 3.55359 269.513 12.0227 266.801 12.0227H266.133L266.948 0C266.981 0.0076173 268.777 0.42784 271.609 0.427892H304.886C307.731 0.427892 309.415 0 309.415 0V12.1297Z" fill="currentColor"/>
<path d="M89.1586 0.280478C89.1586 0.280478 86.86 3.05958 86.86 8.83048V21.3998H111.787L111.802 7.22719C111.802 4.15482 111.801 3.3263 107.861 2.39124C107.246 2.24429 106.792 1.69628 106.792 1.06842V0.280478H112.068C119.428 0.280478 121.232 0.0665319 121.232 0.0665319L121.579 0.34701C121.579 0.34701 119.282 3.05895 119.282 8.81613L119.213 40.0887C119.213 42.1854 120.549 43.6742 122.833 44.2568C123.501 44.425 124.008 44.956 124.008 45.6161V46.755L123.995 46.7419C123.995 46.7419 118.353 46.5772 114.833 46.5947C111.313 46.6122 105.827 46.8215 105.827 46.8215V46.4615C105.827 45.7803 106.335 45.2188 106.989 45.0317C109.54 44.2703 111.771 42.1199 111.772 39.9426L111.787 24.7264H86.86L86.8078 40.0887C86.8079 42.1855 88.1439 43.6742 90.428 44.2568C91.0959 44.425 91.6034 44.956 91.6034 45.6161V46.755L91.5903 46.7419C91.5903 46.7419 86.0541 46.5792 82.5061 46.5947C78.9581 46.6102 73.4219 46.8215 73.4219 46.8215V46.4615C73.4219 45.7802 73.9297 45.2187 74.5842 45.0317C77.1354 44.2703 79.3663 42.1199 79.3667 39.9426V7.22719C79.3667 4.15472 79.3662 3.32634 75.4922 2.39124C74.8778 2.24421 74.4368 1.6962 74.4368 1.06842V0.280478H79.6472C86.9295 0.280472 88.7721 0.00582239 88.8103 0L89.1586 0.280478Z" fill="currentColor"/>
<path fill-rule="evenodd" clip-rule="evenodd" d="M242.768 0.265625C255.133 0.265625 259.857 5.54517 259.857 11.4495C259.857 17.2906 255.02 21.3965 251.557 23.4722C251.194 23.6898 250.966 24.0772 250.966 24.5002C250.966 24.7325 251.035 24.9597 251.165 25.1525L260.968 39.7217C263.886 43.8893 265.206 44.0286 266.803 44.1676L267 44.2224C269.368 44.5177 271.008 45.4903 271.008 46.5992H255.759L255.481 46.3905C255.481 46.3905 254.3 43.1259 251.313 38.7498L243.443 26.9788C243.195 26.608 242.779 26.3853 242.333 26.3853H238.878C238.457 26.3856 238.115 26.7268 238.115 27.1484V40.0752H238.111V40.0882C238.111 42.2523 239.447 43.7895 241.731 44.3906C242.399 44.5643 242.907 45.1117 242.907 45.793V46.9549L242.894 46.9554C242.894 46.9554 237.521 46.8366 234.078 46.8067C230.634 46.7768 224.727 46.9549 224.727 46.9549V46.4479C224.727 45.7714 225.238 45.2131 225.886 45.0194C228.381 44.2742 230.612 42.1867 230.613 40.1391V7.21234C230.613 4.12901 230.814 3.30211 226.779 2.37116C226.16 2.22824 225.708 1.68376 225.708 1.04835V0.265625H242.768ZM238.783 3.39263C238.414 3.39263 238.115 3.69167 238.115 4.06055V22.6608C238.115 23.0295 238.414 23.3287 238.783 23.3287H243.673C247.354 23.3284 251.591 19.9934 251.591 13.3946C251.591 7.97648 248.742 3.39263 241.101 3.39263H238.783Z" fill="currentColor"/>
<path fill-rule="evenodd" clip-rule="evenodd" d="M340.042 0C352.406 0 357.13 5.27955 357.13 11.1839C357.13 17.025 352.294 21.1309 348.831 23.2066C348.468 23.4242 348.24 23.8116 348.24 24.2346C348.24 24.4669 348.308 24.6941 348.438 24.8869L358.242 39.456C361.159 43.6237 362.479 43.763 364.077 43.9019L364.274 43.9567C366.641 44.2521 368.281 45.2247 368.281 46.3336H353.033L352.755 46.1249C352.755 46.1249 351.574 42.8603 348.587 38.4842L340.716 26.7132C340.468 26.3424 340.052 26.1196 339.606 26.1196H336.152C335.73 26.12 335.389 26.4612 335.389 26.8828V39.8096H335.385V39.8226C335.385 41.9866 336.721 43.5238 339.005 44.125C339.673 44.2987 340.18 44.8461 340.18 45.5274V46.6892L340.167 46.6898C340.167 46.6898 334.794 46.5709 331.351 46.541C327.908 46.5111 322 46.6892 322 46.6892V46.1823C322 45.5058 322.511 44.9474 323.16 44.7538C325.655 44.0086 327.886 41.9211 327.886 39.8735V6.94672C327.886 3.86339 328.087 3.03648 324.052 2.10554C323.433 1.96261 322.981 1.41814 322.981 0.782728V0H340.042ZM336.056 3.127C335.688 3.127 335.389 3.42604 335.389 3.79493V22.3952C335.389 22.7639 335.688 23.0631 336.056 23.0631H340.946C344.627 23.0628 348.865 19.7278 348.865 13.129C348.864 7.71086 346.016 3.127 338.375 3.127H336.056Z" fill="currentColor"/>
</svg>
